<svg width="544" height="432" viewBox="0 0 544 432" fill="none" xmlns="http://www.w3.org/2000/svg">
<g clip-path="url(#clip0_302_3)">
<path d="M409.346 203.305V236.998C409.346 241.104 405.446 244.782 399.057 247.553C392.254 250.488 382.624 252.319 371.939 252.319C351.286 252.319 334.57 245.458 334.57 237.014V203.322H409.346V203.305Z" fill="#945915"/>
<path d="M409.346 203.305V236.998C409.346 241.104 405.446 244.782 399.057 247.553V213.86L401.092 204.921L402.864 203.322H409.346V203.305Z" fill="#874C12"/>
<path d="M409.346 203.305C409.346 207.412 405.446 211.089 399.057 213.86C392.254 216.796 382.624 218.626 371.939 218.626C351.286 218.626 334.57 211.766 334.57 203.322C334.57 202.53 334.721 201.739 335.004 200.963L339.225 189.254L347.592 191.712C354.131 189.403 362.649 188.001 371.958 188.001C379.685 188.001 386.883 188.957 392.838 190.623C394.044 190.936 395.213 191.299 396.325 191.695L404.88 189.733L408.894 200.947C409.196 201.706 409.346 202.481 409.346 203.305Z" fill="#FFCB24"/>
<path d="M409.346 203.305C409.346 207.412 405.446 211.089 399.057 213.86L393.027 192.751C393.027 192.751 392.914 191.86 392.838 190.64C394.044 190.953 395.213 191.316 396.325 191.712L404.88 189.749L408.894 200.963C409.196 201.706 409.346 202.481 409.346 203.305Z" fill="#F9B800"/>
<path d="M371.958 205.317C390.328 205.317 405.219 199.218 405.219 191.695C405.219 184.172 390.328 178.073 371.958 178.073C353.589 178.073 338.697 184.172 338.697 191.695C338.697 199.218 353.589 205.317 371.958 205.317Z" fill="#FFD357"/>
<path d="M371.826 190.458C366.625 190.458 362.385 186.764 362.385 182.196V147.662H381.249V182.196C381.249 186.764 377.028 190.458 371.826 190.458Z" fill="#FBC006"/>
<path d="M381.268 147.662V182.196C381.268 186.517 377.442 190.079 372.599 190.425C374.521 188.957 375.709 186.764 375.709 184.34V149.806H362.385V147.662H381.268Z" fill="#F7A500"/>
<path d="M427.984 64.1313V120.352C427.984 147.415 402.901 169.382 371.958 169.382C368.83 169.382 365.739 169.151 362.762 168.706C352.755 167.287 343.653 163.527 336.191 158.101C323.81 149.08 315.933 135.524 315.933 120.352V64.1313H427.984Z" fill="#FFCB24"/>
<path d="M362.743 168.705C352.737 167.287 343.635 163.527 336.172 158.101C328.408 149.707 323.791 139.004 323.791 127.361V71.1567H336.794V127.377C336.813 144.759 347.159 160.031 362.743 168.705Z" fill="#FFD96E"/>
<path d="M427.984 64.1313V120.352C427.984 144.05 408.781 163.824 383.246 168.392C397.512 159.52 406.784 144.941 406.784 128.449V72.2288H315.914V64.1313H427.984Z" fill="#F9B800"/>
<path d="M371.958 79.5346C402.911 79.5346 428.003 72.6383 428.003 64.1313C428.003 55.6243 402.911 48.728 371.958 48.728C341.006 48.728 315.914 55.6243 315.914 64.1313C315.914 72.6383 341.006 79.5346 371.958 79.5346Z" fill="#FFD96E"/>
<path d="M371.883 77.7534C400.556 77.7534 423.8 71.6545 423.8 64.1312C423.8 56.6079 400.556 50.509 371.883 50.509C343.21 50.509 319.966 56.6079 319.966 64.1312C319.966 71.6545 343.21 77.7534 371.883 77.7534Z" fill="#C5A600"/>
<path d="M371.958 223.244C372.429 223.244 372.901 223.244 373.391 223.227V239.092C372.919 239.109 372.448 239.109 371.958 239.109C357.523 239.109 344.991 235.761 338.773 230.846V214.981C344.991 219.896 357.523 223.244 371.958 223.244Z" fill="#FFCB24"/>
<path d="M283.463 125.794C283.482 126.932 281.145 127.855 278.262 127.872C275.379 127.888 273.042 126.998 273.023 125.86C273.004 124.738 275.341 123.798 278.224 123.782C281.108 123.765 283.444 124.656 283.463 125.794Z" fill="#ED8406"/>
<path d="M283.287 106.994L272.847 107.075L273.039 125.892L283.479 125.811L283.287 106.994Z" fill="#ED8406"/>
<path d="M283.275 106.977C283.294 108.098 280.957 109.038 278.074 109.055C275.19 109.071 272.854 108.181 272.835 107.043C272.816 105.921 275.153 104.981 278.036 104.965C280.919 104.948 283.256 105.855 283.275 106.977Z" fill="#FBC006"/>
<path d="M300.103 72.5422C300.103 72.5422 310.279 88.3743 313.238 92.959C316.197 97.5602 344.973 108.247 381.23 83.9875C397.7 73.1689 404.032 54.962 400.414 49.3218C396.796 43.6981 384.961 25.3098 384.961 25.3098L300.103 72.5422Z" fill="#205CE1"/>
<path d="M269.575 77.4565L367.473 80.458L413.681 7.61394L315.499 4.59595L269.575 77.4565Z" fill="#0A2982"/>
<path d="M411.25 3.8374L413.681 7.61402L408.291 10.2692L404.729 8.98283L411.25 3.8374Z" fill="#0A2982"/>
<path d="M267.162 73.6801L269.575 77.4567L276.962 71.3218L267.162 73.6801Z" fill="#0A2982"/>
<path d="M267.162 73.68L365.042 76.6815L411.25 3.83744L313.068 0.835938L267.162 73.68Z" fill="#205CE1"/>
<path d="M278.168 107.802C277.64 107.802 277.188 107.422 277.188 106.944L277.169 73.6307C277.169 73.3503 277.32 73.1029 277.584 72.938L337.661 35.5677C338.094 35.3038 338.697 35.3863 339.018 35.7656C339.319 36.1449 339.225 36.6727 338.792 36.953L279.11 74.076L279.129 106.944C279.129 107.422 278.696 107.802 278.168 107.802Z" fill="#FBC006"/>
<path d="M343.691 36.4582C343.371 39.1629 340.62 41.1089 337.529 40.8285C334.438 40.5482 332.215 38.1404 332.535 35.4357C332.855 32.7311 335.607 30.7851 338.697 31.0654C341.769 31.3458 344.012 33.7536 343.691 36.4582Z" fill="#0A2982"/>
<path d="M205.502 166.891C205.502 175.533 191.406 182.542 174.013 182.542C156.619 182.542 142.523 175.533 142.523 166.891C142.523 158.25 156.619 151.257 174.013 151.257C191.406 151.241 205.502 158.25 205.502 166.891Z" fill="url(#paint0_linear_302_3)"/>
<path d="M130.594 78.1328L142.523 161.07H142.655C143.918 169.134 157.467 175.484 174.032 175.484C191.425 175.484 205.521 168.475 205.521 159.849L217.45 78.1493H130.594V78.1328Z" fill="#347EE7"/>
<path d="M217.412 78.1492L205.483 159.849C205.483 166.182 197.927 171.624 187.034 174.082C188.712 172.169 189.654 170.058 189.654 167.848L201.564 86.1477H131.744L130.594 78.1492H217.412V78.1492Z" fill="#206FCE"/>
<path d="M174.013 99.7039C197.992 99.7039 217.431 90.0462 217.431 78.1327C217.431 66.2193 197.992 56.5615 174.013 56.5615C150.033 56.5615 130.594 66.2193 130.594 78.1327C130.594 90.0462 150.033 99.7039 174.013 99.7039Z" fill="#D0DCFE"/>
<path d="M174.013 94.7728C194.88 94.7728 211.797 87.3228 211.797 78.1326C211.797 68.9425 194.88 61.4924 174.013 61.4924C153.145 61.4924 136.229 68.9425 136.229 78.1326C136.229 87.3228 153.145 94.7728 174.013 94.7728Z" fill="#272C91"/>
<path d="M174.013 94.7728C194.88 94.7728 211.797 87.3228 211.797 78.1326C211.797 68.9425 194.88 61.4924 174.013 61.4924C153.145 61.4924 136.229 68.9425 136.229 78.1326C136.229 87.3228 153.145 94.7728 174.013 94.7728Z" fill="#272C91"/>
<path d="M190.106 70.662L189.145 70.4971C188.636 70.4146 188.297 69.9693 188.391 69.5241L191.199 56.8419C191.293 56.3966 191.802 56.0998 192.311 56.1822L193.272 56.3471C193.781 56.4296 194.12 56.8749 194.026 57.3201L191.218 70.0023C191.105 70.4476 190.615 70.7444 190.106 70.662Z" fill="#FD9220"/>
<path d="M186.168 132.984C185.923 134.122 183.624 134.304 181.042 133.364C178.46 132.424 176.557 130.742 176.802 129.604C177.047 128.466 179.346 128.284 181.928 129.224C184.509 130.148 186.413 131.83 186.168 132.984Z" fill="#9A98ED"/>
<path d="M196.25 39.7729L176.802 129.604L186.168 132.984L205.616 43.1373L196.25 39.7729Z" fill="#FBC006"/>
<path d="M205.615 43.1373C205.37 44.2752 203.071 44.4566 200.49 43.5166C197.908 42.5766 196.005 40.8944 196.25 39.7565C196.495 38.6185 198.794 38.4371 201.375 39.3772C203.976 40.3172 205.879 41.9993 205.615 43.1373Z" fill="#205CE1"/>
<path d="M181.814 20.2962L181.739 23.1493L181.701 24.3202L181.588 28.2618L181.569 29.4327L181.456 33.3742L181.419 34.5451L181.324 38.3712L181.287 39.5421L181.174 43.4012L181.136 44.5721L181.042 48.5136L181.004 49.6516L180.891 53.5931L180.835 54.731L180.74 58.5901L180.703 59.728L180.59 63.6201L180.571 64.791L180.458 68.6831L180.42 69.821L180.326 73.779L180.288 74.9499L180.175 78.8915L180.137 80.0294L180.043 83.9379L180.005 85.0759L179.892 89.0339L179.855 90.1718L179.76 94.0639L179.723 95.2348L179.61 99.1763L179.591 100.314L179.138 116.394C179.044 120.071 176.029 122.644 173.07 121.539L163.328 117.878C161.311 117.103 159.973 114.827 160.086 112.32L163.384 18.0204C163.497 14.6725 166.041 12.2153 168.793 12.7595L177.932 14.5736C180.231 15.0684 181.89 17.4926 181.814 20.2962Z" fill="#205CE1"/>
<path d="M181.739 23.1659L181.701 24.3368C181.683 24.3368 181.664 24.3368 181.626 24.3203L177.48 23.3803C177.235 23.3143 177.066 23.0175 177.103 22.6876C177.16 22.3908 177.405 22.1599 177.669 22.2588L181.739 23.1659Z" fill="white"/>
<path d="M181.588 28.2618L181.569 29.4327C181.532 29.4327 181.513 29.4327 181.475 29.4162L177.329 28.4597C177.066 28.4102 176.896 28.1133 176.952 27.8C177.009 27.5032 177.254 27.2723 177.499 27.3382L181.588 28.2618Z" fill="white"/>
<path d="M181.456 33.3742L181.419 34.5452C181.381 34.5452 181.362 34.5287 181.324 34.5287L177.179 33.5721C176.915 33.5226 176.745 33.2093 176.802 32.9124C176.858 32.5991 177.084 32.3847 177.348 32.4507L181.456 33.3742Z" fill="white"/>
<path d="M181.324 38.3547L181.287 39.5256C181.249 39.5256 181.23 39.5256 181.211 39.5091L177.066 38.5526C176.802 38.5031 176.632 38.2063 176.689 37.8929C176.745 37.5796 176.971 37.3652 177.235 37.4311L181.324 38.3547Z" fill="white"/>
<path d="M181.155 43.3846L181.117 44.5555C181.098 44.5555 181.079 44.5555 181.042 44.539L176.896 43.5825C176.651 43.533 176.481 43.2362 176.519 42.9228C176.576 42.626 176.82 42.3951 177.084 42.461L181.155 43.3846Z" fill="white"/>
<path d="M181.023 48.4972L180.985 49.6351H180.891L176.745 48.6786C176.5 48.6127 176.331 48.3158 176.368 47.986C176.425 47.6891 176.67 47.4582 176.934 47.5572L181.023 48.4972Z" fill="white"/>
<path d="M180.872 53.5766L180.835 54.731C180.816 54.731 180.797 54.731 180.778 54.7145L176.632 53.758C176.387 53.7085 176.218 53.4117 176.255 53.0983C176.312 52.8015 176.557 52.5706 176.821 52.6366L180.872 53.5766Z" fill="white"/>
<path d="M180.74 58.6065L180.703 59.7445H180.608L176.462 58.7879C176.199 58.722 176.029 58.4251 176.086 58.1283C176.142 57.8149 176.387 57.584 176.632 57.6665L180.74 58.6065Z" fill="white"/>
<path d="M180.59 63.6367L180.571 64.8076C180.552 64.8076 180.533 64.8076 180.495 64.7911L176.349 63.8346C176.086 63.7851 175.916 63.4882 175.973 63.1749C176.029 62.8616 176.255 62.6472 176.519 62.7131L180.59 63.6367Z" fill="white"/>
<path d="M180.458 68.6996L180.42 69.8375H180.344L176.199 68.881C175.935 68.815 175.765 68.5181 175.822 68.2213C175.878 67.9079 176.123 67.6771 176.368 67.7595L180.458 68.6996Z" fill="white"/>
<path d="M180.326 73.7955L180.288 74.9664C180.25 74.9664 180.231 74.9664 180.194 74.9499L176.048 73.9934C175.803 73.9439 175.633 73.6471 175.671 73.3337C175.728 73.0368 175.954 72.806 176.236 72.8719L180.326 73.7955Z" fill="white"/>
<path d="M180.175 78.9079L180.137 80.0459H180.118C180.1 80.0459 180.062 80.0294 180.043 80.0294L175.897 79.0728C175.633 79.0234 175.464 78.71 175.52 78.4132C175.558 78.0998 175.803 77.8854 176.067 77.9514L180.175 78.9079Z" fill="white"/>
<path d="M180.043 83.9544L180.005 85.0924C179.986 85.0924 179.986 85.0924 179.968 85.0924C179.93 85.0924 179.911 85.0924 179.873 85.0759L175.728 84.1194C175.464 84.0699 175.313 83.773 175.351 83.4597C175.407 83.1628 175.652 82.9319 175.897 82.9979L180.043 83.9544Z" fill="white"/>
<path d="M179.873 89.067L179.836 90.2049H179.779L175.633 89.2484C175.388 89.1824 175.219 88.8856 175.256 88.5887C175.313 88.2754 175.539 88.061 175.822 88.1269L179.873 89.067Z" fill="white"/>
<path d="M179.742 94.0967L179.704 95.2676C179.685 95.2676 179.666 95.2676 179.647 95.2512L175.501 94.2946C175.238 94.2452 175.068 93.9483 175.125 93.635C175.162 93.3381 175.407 93.1072 175.671 93.1732L179.742 94.0967Z" fill="white"/>
<path d="M179.591 99.1927L179.572 100.331H179.478L175.332 99.3741C175.068 99.3082 174.898 99.0113 174.955 98.7144C174.993 98.4011 175.256 98.1867 175.501 98.2527L179.591 99.1927Z" fill="white"/>
<path d="M0.188309 240.544L30.585 255.864L102.987 219.385L72.8161 203.965L0.188309 240.544Z" fill="url(#paint1_linear_302_3)"/>
<path d="M75.2847 95.2347L7.63196 129.34L30.5849 140.9L79.0914 106.317V97.1642C79.0914 95.4491 76.9807 94.3771 75.2847 95.2347Z" fill="#2875DF"/>
<path d="M7.63196 132.506L74.889 98.5825L99.1046 110.819L31.8664 144.726L7.63196 132.506Z" fill="#75BCFC"/>
<path d="M100.952 107.142C100.086 106.664 99.0303 106.383 98.0315 106.894L30.6049 140.884L7.65195 129.323L75.3047 95.2182C76.0208 94.8554 76.8311 94.8554 77.5096 95.0863V95.0698C77.5096 95.0698 75.154 94.0638 74.2306 93.5691C73.3825 93.1403 72.3649 92.9094 71.385 93.3877L0.208267 129.274V233.93L26.8736 220.49V247.404L99.6522 210.71C101.009 210.017 101.857 208.748 101.857 207.379L104.137 108.659C104.1 108.692 101.989 107.719 100.952 107.142Z" fill="#4594F4"/>
<path d="M30.585 144.644L0.188309 129.323V233.98L30.585 249.301V144.644Z" fill="#347EE8"/>
<path d="M26.458 150.301L3.01506 138.493V146.491L26.458 158.299V150.301Z" fill="#FCC106"/>
<path d="M26.458 160.872L3.01506 149.047V151.818L26.458 163.643V160.872Z" fill="#FCC106"/>
<path d="M26.458 166.017L3.01506 154.209V156.98L26.458 168.788V166.017Z" fill="#FCC106"/>
<path d="M26.458 235.695L3.01506 223.87V226.641L26.458 238.466V235.695Z" fill="#FCC106"/>
<path d="M101.762 108.774L30.5849 144.661V249.317L103.363 212.623C104.72 211.93 105.568 210.661 105.568 209.292V110.704C105.568 108.989 103.458 107.917 101.762 108.774Z" fill="#205CE2"/>
<path d="M54.631 249.087L85.0276 264.407L157.429 227.928L127.259 212.508L54.631 249.087Z" fill="url(#paint2_linear_302_3)"/>
<path d="M129.727 102.92L62.0746 137.025L85.0276 148.586L133.534 114.002V104.85C133.534 103.134 131.423 102.062 129.727 102.92Z" fill="#B4BBE1"/>
<path d="M62.0557 140.191L129.332 106.284L153.547 118.505L86.2901 152.412L62.0557 140.191Z" fill="#DAE3F2"/>
<path d="M155.394 114.827C154.527 114.349 153.472 114.068 152.473 114.58L85.0276 148.569L62.0746 137.009L129.727 102.904C130.444 102.541 131.254 102.541 131.932 102.772V102.755C131.932 102.755 129.577 101.749 128.653 101.254C127.805 100.826 126.788 100.595 125.808 101.073L54.631 136.959V241.616L81.2963 228.175V255.09L154.075 218.395C155.432 217.703 156.28 216.433 156.28 215.064L158.56 116.344C158.541 116.377 156.43 115.404 155.394 114.827Z" fill="#CED2EF"/>
<path d="M85.0276 152.346L54.631 137.009V241.665L85.0276 256.986V152.346Z" fill="#C5C8E8"/>
<path d="M80.9006 157.986L57.4577 146.178V154.176L80.9006 166.001V157.986Z" fill="white"/>
<path d="M80.9006 168.557L57.4577 156.749V159.52L80.9006 171.328V168.557Z" fill="white"/>
<path d="M80.9006 173.719L57.4577 161.895V164.665L80.9006 176.49V173.719Z" fill="white"/>
<path d="M80.9006 243.38L57.4577 231.556V234.326L80.9006 246.151V243.38Z" fill="white"/>
<path d="M156.204 116.46L85.0276 152.346V257.002L157.806 220.308C159.163 219.616 160.011 218.346 160.011 216.977V118.389C160.011 116.674 157.9 115.602 156.204 116.46Z" fill="#B4BBE1"/>
<path d="M521.021 114.002V160.987L517.384 162.719L467.369 129.802L459.568 86.5766L463.186 84.845L521.021 114.002Z" fill="#FF9906"/>
<path d="M521.021 114.002V160.987L517.384 162.719L467.369 129.802L517.384 115.734L521.021 114.002Z" fill="#EF770A"/>
<path d="M517.383 115.734V162.719L459.568 133.562V86.5767L517.383 115.734Z" fill="#FCC106"/>
<path d="M466.748 102.046V105.971L487.647 126.47L508.583 126.915V123.007L466.748 102.046Z" fill="white"/>
<path d="M487.647 128.746L466.748 108.247V128.284L508.583 149.245V129.191L487.647 128.746Z" fill="white"/>
<path d="M289.531 151.01V184.092L285.498 186.038L250.277 162.867L244.775 132.424L248.808 130.478L289.531 151.01Z" fill="#FF9906"/>
<path d="M289.531 151.01V184.092L285.498 186.038L250.277 162.867L285.498 152.956L289.531 151.01Z" fill="#EF770A"/>
<path d="M285.498 152.956V186.038L244.775 165.522V132.424L285.498 152.956Z" fill="#FCC106"/>
<path d="M255.008 155.693L260.529 165.242L276.396 155.067" stroke="white" stroke-width="3.1599" stroke-miterlimit="10" stroke-linecap="round" stroke-linejoin="round"/>
<path d="M543.408 230.335V263.434L539.375 265.38L504.154 242.193L498.652 211.766L502.666 209.803L543.408 230.335Z" fill="#347EE8"/>
<path d="M543.408 230.335V263.434L539.375 265.38L504.155 242.193L539.375 232.298L543.408 230.335Z" fill="#266FC6"/>
<path d="M539.375 232.298V265.38L498.652 244.848V211.765L539.375 232.298Z" fill="#4C96ED"/>
<path d="M518.081 228.62L515.009 232.479C514.821 232.71 514.481 232.793 514.18 232.661L507.528 230.071C506.887 229.824 506.322 230.418 506.699 230.946L512.013 238.202C512.107 238.334 512.145 238.499 512.126 238.664L510.75 244.947C510.675 245.31 510.995 245.689 511.429 245.706L518.552 246.101C518.74 246.118 518.929 246.184 519.061 246.316L525.562 252.649C526.033 253.11 526.862 252.797 526.768 252.187L525.619 245.772C525.562 245.491 525.732 245.244 526.033 245.145L531.065 243.446C531.574 243.281 531.63 242.671 531.178 242.391L523.169 237.245C523.056 237.163 522.962 237.064 522.905 236.949L519.343 228.802C519.117 228.323 518.401 228.224 518.081 228.62Z" fill="white"/>
<path d="M67.9919 286.077L323.942 414.647L482.144 334.662L226.194 206.076L67.9919 286.077Z" fill="url(#paint3_linear_302_3)"/>
<path d="M226.194 193.79L482.144 322.359V327.356L323.942 407.358L67.9919 278.772V273.775L226.194 193.79Z" fill="#80B4FF"/>
<path d="M67.9919 273.775L323.942 402.361L482.144 322.359L226.194 193.79L67.9919 273.775Z" fill="#4588FF"/>
<path d="M228.154 179.541C228.154 179.541 274.795 184.356 352.906 244.699C352.906 244.699 420.427 256.013 473.061 302.602V319.671L323.791 394.676L78.8842 271.631V254.545L228.154 179.541Z" fill="white"/>
<path d="M78.8842 254.545C78.8842 254.545 125.525 259.361 203.637 319.704C203.637 319.704 271.158 331.017 323.791 377.607V394.676L78.8842 271.631V254.545Z" fill="#F5F5F5"/>
<path d="M473.061 302.602L323.791 377.607V394.692L473.061 319.688V302.602Z" fill="#E2E2E2"/>
<path d="M462.696 269.981L313.408 344.969C305.738 340.665 298.049 337.07 290.473 334.085C284.443 331.71 278.507 329.698 272.722 328.016C234.655 316.933 203.637 319.721 203.637 319.721L352.925 244.716C352.925 244.7 408.856 239.686 462.696 269.981Z" fill="#F5F5F5"/>
<path d="M445.02 273.247L441.477 275.028C401.846 254.776 362.008 252.896 346.179 253.077L352.247 250.026C371.525 250.472 408.555 254.116 445.02 273.247Z" fill="url(#paint4_linear_302_3)"/>
<path d="M428.926 281.344L425.402 283.109C385.79 262.857 345.953 260.977 330.123 261.158L336.172 258.107C355.432 258.553 392.443 262.181 428.926 281.344Z" fill="url(#paint5_linear_302_3)"/>
<path d="M412.87 289.409L409.346 291.173C369.772 270.938 329.916 269.025 314.067 269.223L320.154 266.155C339.413 266.601 376.425 270.278 412.87 289.409Z" fill="url(#paint6_linear_302_3)"/>
<path d="M396.965 297.391L393.423 299.172C353.867 278.936 314.048 277.023 298.181 277.205L304.23 274.154C323.527 274.599 360.52 278.26 396.965 297.391Z" fill="url(#paint7_linear_302_3)"/>
<path d="M380.853 305.488L377.329 307.269C337.755 287.034 297.974 285.121 282.088 285.302L288.137 282.251C307.415 282.68 344.389 286.341 380.853 305.488Z" fill="url(#paint8_linear_302_3)"/>
<path d="M363.836 314.031L360.312 315.812C320.757 295.56 280.919 293.647 265.071 293.845L271.158 290.778C290.455 291.239 327.428 294.917 363.836 314.031Z" fill="url(#paint9_linear_302_3)"/>
<path d="M347.573 322.194L344.049 323.975C304.513 303.756 264.75 301.81 248.845 301.992L254.895 298.941C274.21 299.403 311.184 303.08 347.573 322.194Z" fill="url(#paint10_linear_302_3)"/>
<path d="M331.404 330.341L327.88 332.106C288.325 311.887 248.506 309.974 232.639 310.155L238.726 307.088C258.023 307.55 294.996 311.211 331.404 330.341Z" fill="url(#paint11_linear_302_3)"/>
<path d="M222.123 190.013C238.198 194.103 276.566 207.296 331.009 248.113L334.325 246.448C281.974 206.999 244.681 192.8 226.533 187.786L222.123 190.013Z" fill="url(#paint12_linear_302_3)"/>
<path d="M206.218 198.011C222.368 202.134 260.699 215.394 315.047 256.145L318.364 254.479C266.107 215.08 228.832 200.848 210.628 195.802L206.218 198.011Z" fill="url(#paint13_linear_302_3)"/>
<path d="M189.974 206.175C206.03 210.248 244.398 223.441 298.878 264.275L302.195 262.609C249.825 223.145 212.513 208.962 194.384 203.948L189.974 206.175Z" fill="url(#paint14_linear_302_3)"/>
<path d="M173.956 214.223C190.068 218.329 228.418 231.555 282.804 272.34L286.12 270.674C233.826 231.242 196.532 217.026 178.366 212.013L173.956 214.223Z" fill="url(#paint15_linear_302_3)"/>
<path d="M157.806 222.337C173.919 226.427 212.268 239.653 266.673 280.454L269.989 278.788C217.676 239.356 180.401 225.157 162.235 220.127L157.806 222.337Z" fill="url(#paint16_linear_302_3)"/>
<path d="M141.788 230.385C157.919 234.508 196.25 247.734 250.617 288.518L253.952 286.836C201.677 247.421 164.383 233.205 146.198 228.158L141.788 230.385Z" fill="url(#paint17_linear_302_3)"/>
<path d="M125.695 238.482C141.788 242.589 180.156 255.799 234.542 296.599L237.878 294.917C185.565 255.485 148.271 241.286 130.104 236.256L125.695 238.482Z" fill="url(#paint18_linear_302_3)"/>
<path d="M109.564 246.596C125.695 250.702 164.025 263.945 218.392 304.713L221.709 303.047C169.433 263.632 132.14 249.416 113.954 244.37L109.564 246.596Z" fill="url(#paint19_linear_302_3)"/>
<path d="M226.269 263.616L232.243 264.143L232.94 268.596L323.791 222.947L316.498 218.28L226.269 263.616Z" fill="#6CE3FF"/>
<path opacity="0.5" d="M171.732 268.415C169.471 270.641 153.095 277.551 143.88 279.975C142.806 279.415 141.75 278.87 140.714 278.343L170.093 264.704C170.093 264.688 174.013 266.188 171.732 268.415Z" fill="#898989"/>
<path d="M141.562 172.202C141.562 172.202 138.17 175.78 140.299 181.668C141.619 185.313 142.806 185.659 143.126 187.572C143.446 189.485 140.299 193.097 142.994 198.555C144.37 201.343 152.85 198.094 152.85 198.094L157.165 193.097L152.85 182.74L141.562 172.202Z" fill="#2A3049"/>
<path d="M152.643 190.392L153.133 195.455C153.133 195.455 142.674 199.017 142.448 197.352C142.221 195.686 144.634 194.697 145.086 193.559C145.538 192.421 145.086 191.448 145.086 191.448C145.086 191.448 143.748 189.205 143.974 186.517" fill="#22293F"/>
<path d="M98.5964 323.464C98.5964 323.464 98.9167 323.744 98.8602 324.091C98.8037 324.437 98.2383 325.031 97.07 325.575C95.9016 326.119 95.0159 326.35 93.791 327.224C92.5849 328.098 90.3047 329.962 89.0232 330.885C87.723 331.809 85.9139 332.304 84.9339 332.436C83.9352 332.568 81.3723 332.963 79.4124 332.864C77.6598 332.766 76.4349 331.924 76.2465 331.281C76.058 330.655 76.1334 329.583 76.1334 329.583" fill="#3A3D51"/>
<path d="M90.0591 312.678V318.912V321.617H96.0706L98.0116 312.678H90.0591Z" fill="#FFE1BD"/>
<path d="M146.273 254.71C146.273 254.71 139.96 269.866 127.221 273.758C125.148 274.401 123.132 274.896 121.209 275.308C111.354 277.386 104.023 276.776 104.023 276.776C105.173 287.974 99.4438 308.968 98.0304 313.915C97.8231 314.657 97.1447 315.202 96.3155 315.367C96.1648 315.4 95.9952 315.416 95.8444 315.433C94.2426 315.647 92.7539 315.466 91.6609 315.218C90.6056 314.971 89.8518 314.163 89.8141 313.206C89.4749 305.62 87.8919 269.569 92.6031 266.716C104.23 259.641 132.742 251.23 138.547 249.317C139.225 249.103 139.753 248.641 140.035 248.047L141.939 243.99L146.273 254.71Z" fill="#3A3D51"/>
<path d="M124.62 266.699L121.21 275.308C111.354 277.386 104.023 276.776 104.023 276.776C105.173 287.974 99.4438 308.968 98.0305 313.915C97.8232 314.658 97.1448 315.202 96.3156 315.367C96.1648 315.4 95.9952 315.416 95.8445 315.433H95.8256C101.291 298.726 100.386 272.686 100.386 272.686C112.089 273.329 124.244 266.897 124.62 266.699Z" fill="#333647"/>
<path d="M130.575 317.148L133.289 322.211C133.289 322.211 141.487 328.692 139.677 320.71L136.323 311.508" fill="#FFE1BD"/>
<path d="M173.937 257.002C173.447 261.686 171.808 266.914 164.572 270.476C158.202 273.626 144.747 279.316 128.54 282.944C129.143 284.181 129.803 285.583 130.519 287.166C133.383 293.383 136.7 309.331 137.887 314.575C138.076 315.4 137.831 316.241 137.265 316.9C137.133 317.049 137.002 317.181 136.851 317.296C135.833 318.071 134.363 318.912 132.761 318.912C131.668 318.912 130.707 318.319 130.217 317.478C126.92 311.772 111.033 284.577 109.677 278.772C109.526 278.095 109.319 276.99 109.639 276.199C109.733 275.885 109.846 275.655 109.978 275.506C117.177 268.86 141.562 259.278 141.562 259.278L141.939 244.007L168.717 246.613L172.882 247.008C172.882 247.008 174.352 253.094 173.937 257.002Z" fill="#3A3D51"/>
<path d="M173.937 257.002C173.447 261.686 171.808 266.914 164.571 270.476C158.202 273.626 144.747 279.316 128.54 282.944C129.143 284.181 129.803 285.583 130.519 287.166C133.383 293.383 136.7 309.331 137.887 314.575C138.076 315.4 137.831 316.241 137.265 316.9C135.588 311.755 131.876 301.068 130.594 295.197C129.106 288.37 122.68 280.256 122.68 280.256C122.68 280.256 130.538 278.425 141.75 275.176C152.963 271.927 165.061 267.062 168.585 261.208C172.109 255.353 168.585 246.761 168.585 246.761C168.585 246.761 168.642 246.711 168.717 246.613L172.882 247.008C172.882 247.008 174.352 253.094 173.937 257.002Z" fill="#333647"/>
<path d="M98.4262 324.107C97.4086 324.932 96.7302 325.047 94.0165 326.4C91.3029 327.735 88.5892 330.935 86.3844 331.529C84.1795 332.122 79.8075 332.848 77.6781 331.957C76.5285 331.479 76.0951 330.704 76.0386 329.929C76.0009 329.286 76.2082 328.643 76.4908 328.164C77.075 327.125 78.903 326.334 81.1078 325.443C83.3127 324.553 85.6494 322.211 87.1759 320.957C88.7023 319.688 89.1734 318.286 89.7011 317.593C89.9649 317.247 92.2074 317.676 92.9424 318.715C93.3004 319.242 93.2062 319.457 93.0554 319.655C92.9235 319.852 92.9424 320.083 93.0931 320.265C93.2062 320.397 93.3946 320.479 93.6019 320.496C96.5417 320.595 96.8809 317.923 96.8809 317.923C98.9727 318.682 99.4438 323.283 98.4262 324.107Z" fill="#FBC006"/>
<path d="M143.069 324.437C143.069 324.437 143.804 325.097 143.804 325.691C143.804 326.152 142.617 328.313 141.713 328.94C141.713 328.94 141.468 329.269 141.166 329.781C140.865 330.292 139.376 333.095 138.057 334.563C136.738 336.031 133.704 336.889 132.347 337.235C131.009 337.581 129.482 337.829 127.221 337.103C124.941 336.394 124.828 334.91 124.828 334.91L130.952 331.941" fill="#3A3D51"/>
<path d="M143.465 325.196C143.522 325.658 142.73 327.29 141.223 328.758C139.489 331.76 137.774 334.266 136.813 334.877C135.682 335.602 133.553 336.361 131.31 336.938C128.559 337.647 124.79 336.311 124.62 334.299C124.62 334.2 124.62 334.101 124.62 334.003C124.809 331.842 128.257 330.193 129.671 329.583C131.254 328.89 131.932 324.569 132.234 322.805C132.29 322.425 132.648 321.716 133.534 321.749C134.42 321.782 135.343 322.03 135.871 322.442C136.417 322.854 136.267 323.068 136.267 323.481C136.267 323.778 136.511 323.943 136.832 323.959C136.964 323.959 137.096 323.943 137.228 323.893C137.718 323.712 139.96 321.98 139.677 320.727C139.677 320.727 140.243 320.545 140.695 321.073C141.128 321.584 143.314 323.811 143.465 325.196Z" fill="#FBC006"/>
<path d="M150.042 208.896C150.042 208.896 146.707 217.735 143.936 223.705C143.183 225.355 142.466 226.789 141.863 227.746C141.675 228.059 141.449 228.389 141.223 228.719C136.662 235.25 124.677 244.831 120.041 248.707C120.041 248.707 120.041 248.723 120.022 248.723C119.608 249.07 119.08 249.251 118.534 249.301C117.554 249.4 116.498 249.02 115.933 248.229C115.745 247.965 115.65 247.717 115.632 247.503C115.575 247.091 115.745 246.761 115.82 246.612C115.82 246.612 115.839 246.596 115.839 246.579C115.876 246.547 115.876 246.514 115.876 246.514C117.497 244.37 126.58 232.364 130.161 227.729C131.876 225.536 133.138 224.085 134.024 223.145C134.382 219.747 135.55 209.308 137.341 203.223C137.36 203.14 137.397 203.058 137.416 202.975C138.17 200.584 139.357 198.819 140.601 197.55C141.166 196.972 141.732 196.494 142.278 196.115C142.391 196.049 142.485 195.999 142.617 195.933C143.729 195.373 145.199 194.96 146.857 194.68C147.837 194.713 148.798 194.96 149.646 195.455C151.06 196.28 152.04 197.632 152.341 199.677C152.662 201.573 151.38 205.202 150.042 208.896Z" fill="#2EED89"/>
<path d="M137.435 202.992C137.303 203.85 135.305 216.96 135.192 223.491C135.192 223.491 117.309 244.898 115.632 247.503C115.575 247.091 115.745 246.761 115.82 246.613C115.82 246.613 115.839 246.596 115.839 246.58C115.876 246.547 115.876 246.514 115.876 246.514C117.497 244.37 126.58 232.364 130.161 227.73C131.876 225.536 133.138 224.085 134.024 223.145C134.382 219.748 135.55 209.308 137.341 203.223C137.378 203.173 137.416 203.074 137.435 202.992Z" fill="#41F28D"/>
<path d="M143.936 223.706C143.183 225.355 142.466 226.789 141.863 227.746C137.887 234.26 124.922 244.65 120.022 248.707C120.022 248.707 120.022 248.724 120.003 248.724C119.589 249.07 119.061 249.251 118.515 249.301C120.927 247.074 134.797 234.326 136.568 232.248C138.528 229.972 139.546 228.274 139.263 226.855C138.98 225.437 138.566 224.942 137.209 222.386C135.192 218.626 135.362 217.026 135.362 217.026C135.362 217.026 140.601 218.494 141.072 218.527C141.336 218.56 142.711 221.199 143.936 223.706Z" fill="#27E076"/>
<path d="M139.979 201.244C139.979 201.244 140.299 205.103 138.811 207.692C137.322 210.298 135.927 212.771 135.381 216.581L141.543 210.248L139.979 201.244Z" fill="#27E076"/>
<path d="M150.042 208.896C150.042 208.896 146.707 217.735 143.936 223.705C143.183 225.355 142.466 226.789 141.863 227.746C141.675 228.059 141.449 228.389 141.223 228.719C136.662 235.25 124.677 244.831 120.041 248.707C120.041 248.707 120.041 248.723 120.022 248.723C119.608 249.07 119.08 249.251 118.534 249.301C117.554 249.4 116.498 249.02 115.933 248.229C115.745 247.965 115.65 247.717 115.632 247.503C115.575 247.091 115.745 246.761 115.82 246.612C115.82 246.612 115.839 246.596 115.839 246.579C115.876 246.547 115.876 246.514 115.876 246.514C117.497 244.37 126.58 232.364 130.161 227.729C131.876 225.536 133.138 224.085 134.024 223.145C134.382 219.747 135.55 209.308 137.341 203.223C137.36 203.14 137.397 203.058 137.416 202.975C138.17 200.584 139.357 198.819 140.601 197.55C141.166 196.972 141.732 196.494 142.278 196.115C142.391 196.049 142.485 195.999 142.617 195.933C143.729 195.373 145.199 194.96 146.857 194.68C147.837 194.713 148.798 194.96 149.646 195.455C151.06 196.28 152.04 197.632 152.341 199.677C152.662 201.573 151.38 205.202 150.042 208.896Z" fill="#FBC006"/>
<path d="M172.976 245.277C173.334 245.969 173.56 246.448 172.863 246.992C172.863 246.992 170.47 249.598 162.969 249.845C162.856 249.845 162.762 249.845 162.649 249.845C162.065 249.845 161.387 249.796 160.652 249.713C155.149 249.07 146.066 246.283 142.862 244.601C142.862 244.601 142.824 244.584 142.768 244.551C142.749 244.551 142.749 244.535 142.73 244.535C142.334 244.32 141.166 243.644 141.298 243.215C141.844 241.533 141.939 239.422 141.939 239.406C141.901 235.877 141.769 231.193 141.185 228.719C141.147 228.571 141.11 228.406 141.072 228.274C141.015 228.059 140.94 227.845 140.865 227.647C140.054 225.371 138.321 223.029 137.02 221.034L137.001 221.001C136.153 219.715 135.494 218.56 135.4 217.686C134.834 213.134 139.979 210.001 139.715 206.026C139.508 202.926 138.942 199.776 140.601 197.583C140.996 197.038 141.543 196.544 142.278 196.148C142.391 196.082 142.485 196.032 142.617 195.967C143.729 195.406 145.199 194.994 146.857 194.713C151.323 193.955 157.222 194.169 161.858 195.34C161.858 195.34 177.065 200.799 178.592 205.73C180.118 210.661 175.294 219.863 173.278 224.464C173.051 224.992 172.825 225.569 172.618 226.179C170.997 231.011 170.168 238.317 171.092 241.302C171.092 241.286 172.448 244.238 172.976 245.277Z" fill="#FBC006"/>
<path d="M172.863 247.008C172.863 247.008 170.47 249.614 162.97 249.862C162.857 249.862 162.762 249.862 162.649 249.862C162.065 249.862 161.387 249.812 160.652 249.73C161.952 249.581 163.328 249.235 164.119 248.559C165.853 247.041 164.308 239.406 163.874 237.196C163.478 235.118 164.232 230.797 162.555 230.302L162.159 227.977C162.159 227.977 160.802 229.445 157.674 228.917C153.905 228.274 152.266 227.631 150.909 227.301C149.156 226.856 147.121 226.641 143.522 225.883C139.602 225.041 139.131 224.266 139.131 224.266C138.434 223.145 137.68 222.056 137.039 221.067L137.02 221.034C137.02 221.034 138.867 223.029 141.543 223.524C144.2 224.019 155.658 226.608 158.126 226.278C160.614 225.948 163.271 222.865 163.271 222.865L172.618 226.196C170.997 231.028 170.168 238.334 171.092 241.319C171.092 241.319 172.43 244.271 172.976 245.326C173.334 245.969 173.56 246.448 172.863 247.008Z" fill="#F9A208"/>
<path d="M166.117 200.188C165.872 202.134 157.448 206.802 150.89 208.748C150.89 208.748 148.12 202.217 148.78 198.424C148.893 197.748 149.364 197.121 150.061 196.808C150.419 196.643 150.721 196.445 151.003 196.214C151.738 195.587 152.19 194.697 152.19 193.74C152.19 193.278 152.153 192.817 152.134 192.404C152.021 191.2 151.814 190.326 151.814 190.326L164.006 184.472C164.006 184.472 162.385 194.416 163.78 195.95C163.799 195.917 166.362 198.358 166.117 200.188Z" fill="#FFE1BD"/>
<path opacity="0.25" d="M163.064 194.548L160.312 191.827L159.389 191.365C160.426 190.607 161.349 189.683 161.914 188.562L152.153 192.388C152.19 192.8 152.209 193.245 152.209 193.723C152.209 194.68 151.776 195.554 151.022 196.197C151.022 196.197 152.172 196.098 152.963 194.993C153.453 194.317 156.129 193.014 158.371 192.058C158.409 193.08 158.974 195.307 160.859 196.379C163.818 198.061 167.153 197.698 167.153 197.698L163.064 194.548Z" fill="#EDA38C"/>
<path d="M142.278 172.927C142.278 172.927 141.072 179.755 143.107 185.758C145.142 191.761 147.931 193.476 149.514 193.558C151.097 193.641 160.463 192.421 163.158 186.648C165.853 180.876 165.288 174.313 164.081 170.899C162.875 167.485 156.11 164.566 151.361 165.292C146.631 166.017 142.73 168.953 142.278 172.927Z" fill="#FFE1BD"/>
<path d="M158.956 261.884V263.352L122.397 250.637L99.6512 258.916L99.8962 258.503H96.7491V259.691C96.7491 259.856 96.8622 260.004 97.0318 260.054L135.494 273.428C135.758 273.527 136.059 273.511 136.323 273.428L160.52 264.622C160.727 264.556 160.859 264.374 160.859 264.193V262.775L158.956 261.884Z" fill="#4B9CB5"/>
<path d="M159.86 264.275C159.86 264.473 159.728 264.638 159.578 264.638C159.427 264.638 159.295 264.473 159.295 264.275C159.295 264.077 159.427 263.912 159.578 263.912C159.747 263.912 159.86 264.077 159.86 264.275Z" fill="#48C8EF"/>
<path d="M158.447 265.017C158.603 265.017 158.73 264.855 158.73 264.655C158.73 264.454 158.603 264.292 158.447 264.292C158.291 264.292 158.164 264.454 158.164 264.655C158.164 264.855 158.291 265.017 158.447 265.017Z" fill="#48C8EF"/>
<path d="M157.523 265.067C157.523 265.265 157.392 265.43 157.241 265.43C157.09 265.43 156.958 265.265 156.958 265.067C156.958 264.869 157.09 264.704 157.241 264.704C157.392 264.688 157.523 264.852 157.523 265.067Z" fill="#48C8EF"/>
<path d="M122.397 249.169L96.7491 258.503L135.909 272.125L160.576 263.137C160.934 263.005 160.934 262.577 160.576 262.445L122.397 249.169Z" fill="#48C8EF"/>
<path d="M122.227 250.834L100.085 258.899C99.9149 258.965 99.9149 259.179 100.085 259.245L134.175 271.103C134.231 271.119 134.288 271.119 134.326 271.103L156.468 263.038C156.638 262.972 156.638 262.758 156.468 262.692L122.378 250.834C122.34 250.818 122.284 250.818 122.227 250.834Z" fill="#6CE3FF"/>
<path d="M131.687 253.44L125.035 255.865C124.941 255.898 124.941 256.029 125.035 256.062L135.55 259.724C135.795 259.806 136.097 259.806 136.342 259.724L142.956 257.316C143.07 257.266 143.07 257.134 142.956 257.085L132.479 253.44C132.234 253.341 131.951 253.358 131.687 253.44Z" fill="#85EEFF"/>
<path d="M135.155 272.703C135.25 272.686 135.363 272.637 135.476 272.538C135.495 272.505 135.532 272.488 135.551 272.472L135.909 272.142L125.3 248.905C125.168 248.608 124.904 248.394 124.583 248.278L86.385 234.986C86.2719 234.953 86.1589 234.969 86.0835 235.052L85.4239 235.646L85.4051 235.662L86.7054 236.503L96.7496 258.503L134.42 271.614L134.288 271.713L135.118 272.703H135.155Z" fill="#B3E8F4"/>
<path d="M135.155 272.703L124.696 249.796C124.489 249.35 124.093 248.988 123.584 248.823L85.593 235.613C85.5176 235.596 85.461 235.613 85.4045 235.646L85.3857 235.662C85.348 235.695 85.348 235.745 85.3668 235.794L95.9199 258.932C95.9953 259.08 96.1272 259.196 96.2779 259.245L134.797 272.653C134.797 272.653 134.834 272.67 134.891 272.686C134.947 272.686 135.004 272.703 135.117 272.686H135.155V272.703Z" fill="#5AAFD1"/>
<path opacity="0.17" d="M110.864 255.056C110.487 256.062 108.791 256.458 107.076 255.963C105.361 255.469 104.287 254.248 104.664 253.242C105.041 252.236 106.737 251.84 108.452 252.335C110.167 252.83 111.241 254.05 110.864 255.056Z" fill="white"/>
<path d="M143.522 253.803L142.071 255.403C141.355 256.194 140.092 256.425 138.961 256.623L136.813 257.052C136.757 257.052 136.681 257.068 136.625 257.101C136.568 257.134 136.493 257.184 136.436 257.233L134.062 259.014C133.967 259.097 133.873 259.179 133.817 259.278C133.817 259.278 132.554 261.109 132.29 261.736C132.215 261.884 132.667 262.049 133.044 261.834C133.421 261.62 134.834 259.872 134.834 259.872C134.834 259.872 133.685 262.065 133.402 262.807C133.327 262.989 133.76 263.104 134.25 262.791C134.74 262.478 136.022 260.202 136.022 260.202C136.022 260.202 135.324 261.966 135.192 262.527C135.155 262.692 135.4 262.807 135.927 262.626C136.455 262.445 137.397 260.482 137.397 260.482L138.132 259.954L137.491 260.697C137.491 260.697 136.851 261.917 136.7 262.28C136.625 262.494 137.171 262.527 137.68 262.049C138.189 261.571 139.074 260.499 139.47 260.449C139.866 260.4 140.111 260.779 141.807 260.664C143.296 260.565 144.351 258.272 144.351 258.272L148.007 255.073L143.522 253.803Z" fill="#FFE1BD"/>
<path d="M176.877 216.614C176.877 216.614 171.431 231.028 168.717 235.464C164.741 241.978 151.776 252.368 146.876 256.425L146.857 256.442C146.367 256.837 145.727 257.035 145.105 257.052C144.2 257.052 143.296 256.673 142.787 255.963C142.617 255.733 142.542 255.518 142.504 255.32C142.41 254.858 142.598 254.496 142.693 254.347C142.693 254.347 142.711 254.331 142.711 254.314C142.749 254.281 142.749 254.248 142.749 254.248C144.37 252.104 153.453 240.098 157.034 235.464C158.748 233.271 160.011 231.819 160.897 230.879C161.217 227.73 162.254 218.527 163.837 212.359C163.837 212.326 163.837 212.31 163.837 212.31C163.95 211.831 164.081 211.386 164.213 210.957C165.363 206.999 167.719 204.756 169.622 203.52C171.657 202.2 174.427 201.953 176.538 203.173C176.934 203.404 177.292 203.668 177.612 203.998C178.441 204.806 179.007 205.927 179.233 207.395C179.497 209.292 178.215 212.92 176.877 216.614Z" fill="#2EED89"/>
<path d="M176.877 216.614C176.877 216.614 171.431 231.028 168.717 235.464C164.741 241.978 151.776 252.368 146.876 256.425L146.857 256.442C146.367 256.837 145.727 257.035 145.105 257.052C147.592 254.891 156.751 246.876 158.88 244.93C161.368 242.654 166.494 237.13 168.416 233.403C170.338 229.659 175.03 216.944 176.821 211.798C178.554 206.818 177.669 204.196 177.593 204.031C178.422 204.839 178.988 205.96 179.214 207.428C179.497 209.292 178.215 212.92 176.877 216.614Z" fill="#27E076"/>
<path d="M163.818 212.376C163.723 213.266 162.14 227.812 162.178 231.11C162.178 231.11 144.219 252.764 142.485 255.304C142.391 254.842 142.58 254.479 142.674 254.331C142.674 254.331 142.693 254.314 142.693 254.298C142.73 254.265 142.73 254.232 142.73 254.232C144.351 252.088 153.434 240.082 157.015 235.448C158.73 233.254 159.992 231.803 160.878 230.863C161.217 227.73 162.254 218.544 163.818 212.376Z" fill="#41F28D"/>
<path d="M176.877 216.614C176.877 216.614 171.431 231.028 168.717 235.464C164.741 241.978 151.776 252.368 146.876 256.425L146.857 256.442C146.367 256.837 145.727 257.035 145.105 257.052C144.2 257.052 143.296 256.673 142.787 255.963C142.617 255.733 142.542 255.518 142.504 255.32C142.41 254.858 142.598 254.496 142.693 254.347C142.693 254.347 142.711 254.331 142.711 254.314C142.749 254.281 142.749 254.248 142.749 254.248C144.37 252.104 153.453 240.098 157.034 235.464C158.748 233.271 160.011 231.819 160.897 230.879C161.217 227.73 162.254 218.527 163.837 212.359C163.837 212.326 163.837 212.31 163.837 212.31C163.95 211.831 164.081 211.386 164.213 210.957C165.363 206.999 167.719 204.756 169.622 203.52C171.657 202.2 174.427 201.953 176.538 203.173C176.934 203.404 177.292 203.668 177.612 203.998C178.441 204.806 179.007 205.927 179.233 207.395C179.497 209.292 178.215 212.92 176.877 216.614Z" fill="#FBC006"/>
<path d="M169.829 198.737C167.417 197.583 164.628 197.747 162.122 196.313L162.103 196.296C161.933 196.197 161.745 196.082 161.575 195.966C161.406 195.851 161.217 195.719 161.048 195.571C157.863 192.998 159.446 187.094 159.446 184.076V183.894C159.351 179.673 159.559 176.506 153.51 177.644C150.852 178.139 148.44 177.974 146.575 177.644C142.636 176.935 140.337 173.158 142.203 170.041C142.297 169.893 142.391 169.761 142.485 169.613C146.631 163.807 156.072 164.484 161.085 167.106C165.325 169.332 166.871 172.449 166.795 178.056C166.72 182.855 168.849 182.641 169.829 186.962C169.905 187.275 169.98 187.605 170.018 187.968C170.074 188.364 170.131 188.776 170.168 189.172C170.696 194.284 169.829 198.737 169.829 198.737Z" fill="#2A3049"/>
<path d="M169.829 198.737C167.417 197.583 164.628 197.747 162.122 196.313L162.103 196.296C161.933 196.197 161.745 196.082 161.575 195.966C161.405 195.851 161.217 195.719 161.047 195.57C157.863 192.998 159.446 187.094 159.446 184.076L162.197 182.509C162.197 182.509 162.498 184.142 162.197 185.56C161.895 186.995 161.349 187.061 160.802 188.71C160.256 190.359 160.444 193.46 162.329 194.663C164.213 195.867 167.153 195.587 168.039 196.032C168.039 196.032 169.999 192.717 169.829 186.929C169.905 187.242 169.98 187.572 170.018 187.935C170.074 188.331 170.131 188.743 170.168 189.139C170.696 194.284 169.829 198.737 169.829 198.737Z" fill="#22293F"/>
<path d="M158.673 181.833C158.673 181.833 159.634 180.448 161.142 180.662C162.649 180.876 162.461 182.822 162.046 184.439C161.481 186.533 158.956 186.302 158.956 186.302" fill="#FFE1BD"/>
<path d="M98.4254 324.107C97.4078 324.932 96.7294 325.047 94.0157 326.4C91.3021 327.736 88.5884 330.935 86.3836 331.529C84.1787 332.122 79.8067 332.848 77.6773 331.957C76.5278 331.479 76.0943 330.704 76.0378 329.929C76.9989 330.869 77.8657 331.38 81.0317 331.298C84.1976 331.199 87.3635 330.308 89.3045 328.197C91.2644 326.086 92.5081 325.031 94.6187 324.305C96.7294 323.58 97.7093 322.656 97.4266 321.799C97.1251 320.941 96.3713 320.397 94.8449 320.71C93.3185 321.023 93.1111 320.281 93.1111 320.281C93.2242 320.413 93.4127 320.496 93.62 320.512C96.5598 320.611 96.899 317.939 96.899 317.939C98.9719 318.682 99.443 323.283 98.4254 324.107Z" fill="#F9A208"/>
<path d="M143.465 325.196C143.522 325.658 142.73 327.29 141.223 328.758C139.489 331.76 137.774 334.266 136.813 334.876C135.682 335.602 133.553 336.361 131.31 336.938C128.559 337.647 124.79 336.311 124.62 334.299C127.636 336.625 134.288 334.431 135.418 333.442C136.549 332.452 136.832 330.984 138.509 329.467C140.186 327.933 142.09 326.136 141.166 324.701C140.507 323.695 138.415 323.893 137.831 324.091C137.246 324.289 136.851 323.942 136.851 323.942C136.983 323.942 137.115 323.926 137.246 323.876C137.736 323.695 139.979 321.963 139.696 320.71C139.696 320.71 140.262 320.529 140.714 321.056C141.128 321.584 143.314 323.81 143.465 325.196Z" fill="#F9A208"/>
<path d="M483.783 360.587L362.385 421.887L352.284 416.824L473.682 355.491L492.622 351.104C492.942 351.022 493.187 351.368 492.961 351.583L483.783 360.587Z" fill="url(#paint20_linear_302_3)"/>
<path d="M473.871 345.464L490.247 342.051C490.812 341.935 491.227 342.529 490.831 342.908L479.694 353.628L473.871 345.464Z" fill="#B4BBE1"/>
<path d="M490.831 342.908L486.459 347.13C486.384 346.536 486.195 345.926 485.856 345.332C485.574 344.788 485.178 344.31 484.763 343.898C484.556 343.7 484.33 343.518 484.085 343.353L490.266 342.084C490.831 341.919 491.227 342.545 490.831 342.908Z" fill="#4588FF"/>
<path d="M360.048 403.581L361.594 405.973L365.589 412.124L478.45 354.469C478.695 354.37 478.922 354.238 479.129 354.106C479.713 353.71 480.146 353.182 480.429 352.539C480.957 351.319 480.9 349.752 480.109 348.301C479.807 347.757 479.43 347.262 479.016 346.866C477.847 345.728 476.283 345.134 474.813 345.266C474.399 345.299 473.984 345.398 473.607 345.563C473.532 345.58 473.475 345.613 473.4 345.646L473.155 345.778C473.117 345.794 473.098 345.811 473.061 345.827C473.042 345.844 473.023 345.86 472.985 345.877L360.048 403.581Z" fill="#4588FF"/>
<path d="M360.048 403.581L361.594 405.973L365.513 404.95L479.016 346.883C479.016 346.883 479.016 346.883 479.016 346.866C477.847 345.728 476.283 345.134 474.813 345.266C474.399 345.299 473.984 345.398 473.607 345.563C473.532 345.58 473.475 345.613 473.4 345.646L473.155 345.778C473.117 345.794 473.098 345.811 473.061 345.827C473.042 345.844 473.023 345.86 472.985 345.877L360.048 403.581Z" fill="#80B4FF"/>
<path d="M358.409 409.749C359.766 412.206 362.668 413.443 364.911 412.503C365.155 412.404 365.382 412.272 365.589 412.14C366.173 411.745 366.607 411.2 366.87 410.574C367.398 409.353 367.342 407.787 366.55 406.335C365.438 404.29 363.233 403.103 361.236 403.284C360.821 403.317 360.407 403.416 360.03 403.581C359.954 403.614 359.898 403.647 359.822 403.664L359.577 403.812C359.54 403.829 359.521 403.845 359.483 403.862C357.693 404.999 357.165 407.506 358.409 409.749Z" fill="#3081E2"/>
<path d="M441.25 423.767C438.235 425.383 436.878 424.723 433.241 425.927C429.585 427.115 422.613 430.941 419.692 431.205C416.771 431.485 413.134 430.083 412.097 427.906C411.061 425.713 413.963 424.047 417.185 422.596C420.427 421.128 428.04 416.214 428.04 416.214L438.555 415.356C437.915 415.933 437.462 416.378 437.462 416.378L436.445 421.31L441.325 422.167C441.307 422.151 442.023 422.926 441.25 423.767Z" fill="#595959"/>
<path d="M428.022 415.34C428.022 415.34 420.408 420.271 417.167 421.722C413.945 423.173 411.042 424.839 412.079 427.032C413.115 429.226 416.752 430.611 419.673 430.33C422.594 430.05 429.567 426.224 433.223 425.037C436.879 423.849 438.217 424.492 441.251 422.893C442.362 422.299 442.796 417.764 440.591 414.301" fill="#347EE8"/>
<path d="M475.831 391.987C475.831 392.152 475.793 392.284 475.737 392.4C475.228 393.505 474.38 394.131 471.779 395.5C469.16 396.869 467.37 400.563 465.184 402.278C462.998 404.01 460.227 405.61 457.608 405.708C455.007 405.791 451.785 404.241 451.464 402.509C451.144 400.777 452.407 400.233 453.65 399.508C454.894 398.782 458.757 395.681 459.474 394.857C460.208 394.032 461.867 391.575 461.867 391.575L470.611 385.275C471.873 385.852 472.891 386.644 473.682 387.502C473.287 387.452 472.929 387.436 472.853 387.502C472.684 387.65 471.873 389.53 471.873 389.53C471.873 389.53 472.552 390.503 472.778 390.586C473.023 390.651 474.926 390.767 474.926 390.767C474.926 390.767 475.718 391.262 475.831 391.987Z" fill="#595959"/>
<path d="M461.546 390.882C461.546 390.882 459.888 393.34 459.153 394.164C458.418 394.989 454.574 398.089 453.311 398.815C452.068 399.54 450.805 400.085 451.125 401.816C451.446 403.548 454.668 405.098 457.269 405.016C459.869 404.917 462.658 403.334 464.844 401.602C467.03 399.87 468.821 396.176 471.44 394.807C474.041 393.438 474.87 392.828 475.397 391.723C475.925 390.618 474.361 386.429 470.29 384.599" fill="#347EE8"/>
<path d="M471.251 384.335C469.084 391.443 460.416 391.08 460.416 391.08C460.416 391.08 453.066 384.335 445.434 376.535C440.063 371.076 434.561 365.089 431.357 360.571C430.641 359.548 430.038 358.608 429.567 357.767C428.907 356.563 428.323 354.947 427.777 353.034C423.781 339.082 422.481 309.38 422.481 309.38L445.189 319.226L444.982 350.461C444.982 350.461 447.149 352.226 449.825 354.93C451.446 356.58 453.255 358.559 454.875 360.702C459.247 366.475 471.251 384.335 471.251 384.335Z" fill="#3A3D51"/>
<path d="M471.252 384.335C469.084 391.443 460.416 391.08 460.416 391.08C460.416 391.08 453.066 384.335 445.434 376.535L446.772 363.688L448.977 354.93H449.844C451.465 356.58 453.274 358.559 454.894 360.703C459.247 366.475 471.252 384.335 471.252 384.335Z" fill="#242733"/>
<path d="M439.969 328.791C439.969 328.791 436.803 342.875 436.332 342.957C435.974 343.007 432.865 354.798 431.376 360.571C430.66 359.548 430.057 358.608 429.586 357.767C428.926 356.563 428.342 354.947 427.795 353.034C429.228 343.452 433.694 322.211 433.694 322.211H437.783L439.969 328.791Z" fill="#333647"/>
<path d="M464.392 323.381C463.412 327.686 456.722 343.386 451.841 355.013C448.77 362.351 446.923 369.987 446.282 377.771C445.17 391.377 442.834 411.893 442.042 415.867C442.042 415.867 441.27 416.411 439.988 416.956C437.256 418.094 432.205 419.182 427.268 414.96C427.268 414.96 427.098 371.372 427.324 363.72C427.532 356.068 435.861 324.882 435.861 324.882C435.861 324.882 422.952 321.238 422.538 309.396L458.286 313.437L464.43 314.13C464.392 314.13 465.824 316.95 464.392 323.381Z" fill="#3A3D51"/>
<path d="M464.392 323.382C463.412 327.686 456.722 343.386 451.841 355.013C448.77 362.352 446.923 369.987 446.282 377.771C445.17 391.377 442.834 411.893 442.042 415.867C442.042 415.867 441.269 416.412 439.988 416.956C440.798 406.253 443.305 373.038 443.795 366.854C444.341 359.449 450.164 347.328 453.707 336.575C457.25 325.822 456.628 314.872 456.628 314.872L458.286 313.421L464.43 314.113C464.392 314.13 465.824 316.95 464.392 323.382Z" fill="#333647"/>
<path d="M466.239 314.196C466.239 314.196 466.484 314.921 466.653 315.927C466.71 316.257 466.559 316.571 466.239 316.752C465.523 317.164 463.902 317.989 460.755 319.044C457.193 320.232 452.463 320.413 449.052 320.133C447.62 320.017 433.562 317.296 425.157 312.646C423.028 311.458 421.935 309.265 422.349 307.088V307.038C422.632 305.587 466.239 314.196 466.239 314.196Z" fill="#2268BC"/>
<path d="M472.816 267.409C471.741 271.268 470.441 275.094 469.103 278.903C468.481 280.701 467.727 282.482 466.974 284.247C464.279 290.613 461.452 296.995 463.073 303.938C463.714 306.659 465.315 310.073 464.957 312.86C464.731 314.526 464.467 315.944 461.113 317.824C460.435 318.22 459.662 318.517 458.889 318.731L458.437 318.847L458.23 318.896C457.514 319.077 456.797 319.209 456.081 319.308C454.329 319.572 452.557 319.622 450.786 319.49C449.957 319.44 449.128 319.341 448.317 319.209C443.21 318.368 433.675 316.323 425.44 311.854C425.421 311.838 425.383 311.838 425.383 311.838C422.82 310.485 421.426 307.22 422.236 302.718C422.632 300.458 423.254 297.308 423.781 294.752C424.384 291.751 424.648 288.683 424.535 285.632C424.479 284.263 424.441 282.878 424.403 281.526C422.896 273.065 417.468 255.914 420.107 251.296C421.803 248.377 424.837 243.413 424.837 243.413C424.837 243.413 431.47 241.797 434.919 241.599C435.409 241.583 435.88 241.566 436.37 241.566C439.159 242.044 442.08 242.44 444.963 242.984C446.829 243.331 448.675 243.71 450.484 244.205C451.031 244.353 451.54 244.502 452.067 244.667C452.501 244.815 452.934 244.947 453.349 245.095C455.987 245.986 457.834 246.745 459.304 247.371C461.113 248.163 462.338 248.823 463.638 249.565C463.714 249.598 463.77 249.631 463.845 249.68C465.315 250.505 467.52 251.89 469.499 253.44C471.421 254.941 473.117 256.574 473.682 257.975C473.833 258.355 474.003 258.932 474.154 259.724C474.172 259.773 474.172 259.823 474.172 259.872C474.436 262.329 473.475 265.034 472.816 267.409Z" fill="#347EE8"/>
<path d="M474.116 259.707L471.082 260.037C470.271 254.628 452.369 246.431 452.369 246.431L452.049 244.65C452.482 244.799 452.915 244.93 453.33 245.079C455.968 245.969 457.815 246.728 459.285 247.355C461.094 248.146 462.319 248.806 463.619 249.548C463.695 249.581 463.751 249.614 463.827 249.664C465.296 250.488 467.501 251.873 469.48 253.424C471.402 254.924 473.098 256.557 473.664 257.959C473.814 258.338 473.965 258.915 474.116 259.707Z" fill="#266FC6"/>
<path d="M451.936 236.008V242.786C451.936 242.786 444.002 247.8 439.8 247.074C437.991 246.761 437.029 244.732 437.406 241.863L441.232 241.187L451.936 236.008Z" fill="#F2BA88"/>
<path d="M438.839 246.678L434.335 251.313C434.335 251.313 434.165 245.755 437.18 242.918C440.12 240.148 440.233 242.539 440.233 242.539C440.233 242.539 437.463 245.343 438.839 246.678Z" fill="white"/>
<path d="M430.038 226.987C430.038 226.987 429.397 232.66 430.735 237.855C432.073 243.05 432.488 244.221 434.881 245.145C437.274 246.068 439.423 246.167 443.437 243.908C447.45 241.648 449.655 237.954 449.655 237.954C449.655 237.954 450.221 238.284 451.672 236.866C453.914 234.639 454.348 233.535 454.348 230.517C454.348 227.499 453.481 223.705 450.805 219.78C448.129 215.839 439.894 217.109 436.162 218.774C432.431 220.457 430.754 223.607 430.038 226.987Z" fill="#FFD1A4"/>
<path d="M426.778 227.235C430.886 233.584 441.119 229.412 441.119 229.412C441.872 232.166 444.077 232.43 445.151 232.941C446.207 233.452 446.433 236.124 446.433 236.124H447.394C447.394 236.124 447.432 233.452 447.922 232.1C448.412 230.764 451.276 229.725 452.708 231.688C454.009 233.452 452.52 235.415 451.653 236.866C451.37 239.175 451.917 240.148 451.917 240.148C451.917 240.148 453.481 238.795 454.517 236.041C455.573 233.287 456.345 227.499 454.517 221.298C454.329 220.655 454.046 220.061 453.669 219.517C450.522 214.866 441.571 213.975 438.047 215.014C435.013 215.921 427.494 218.906 426.099 223.161C425.704 224.398 425.854 225.783 426.778 227.235Z" fill="#2A3049"/>
<path d="M426.476 353.958C426.533 354.287 426.589 354.617 426.646 354.931C426.589 354.551 426.533 354.238 426.476 353.958Z" fill="#3A3A3A"/>
<path d="M451.917 242.094C451.917 242.094 452.407 242.654 452.784 243.496C453.104 244.188 453.33 245.062 453.33 245.062C453.33 245.062 450.089 250.9 441.175 253.407L440.157 247.091C440.176 247.124 447.978 246.184 451.917 242.094Z" fill="white"/>
<path d="M426.778 227.235C430.886 233.584 441.119 229.412 441.119 229.412C441.872 232.166 444.077 232.43 445.151 232.941C446.207 233.452 446.433 236.124 446.433 236.124H447.394C447.394 236.124 447.432 233.452 447.922 232.1C448.412 230.764 451.276 229.725 452.708 231.688C454.009 233.452 452.52 235.415 451.653 236.866C451.37 239.175 451.917 240.148 451.917 240.148C451.917 240.148 453.481 238.795 454.517 236.041C455.573 233.287 456.345 227.499 454.517 221.298C454.329 220.655 454.046 220.061 453.669 219.517C451.954 220.803 446.998 224.316 441.816 226.229C435.371 228.587 429.868 228.208 428.21 227.037C425.817 225.338 426.099 223.161 426.099 223.161C425.704 224.398 425.854 225.783 426.778 227.235Z" fill="#1C2235"/>
<path d="M461.848 323.695C461.848 323.695 461.603 327.092 461.245 327.851C461.094 328.28 460.736 328.676 460.472 329.055C460.02 329.731 457.985 332.914 457.683 334.778C457.495 335.948 458.343 339.395 458.757 340.071C458.795 340.154 458.852 340.22 458.946 340.269C459.04 340.319 459.153 340.319 459.266 340.302C460.548 340.137 460.623 338.752 460.51 337.878C460.453 337.383 460.435 335.866 460.812 335.899C462.281 336.691 462.451 340.038 462.696 341.358C463.035 343.139 461.886 346.701 462.884 346.652C463.28 346.635 466.408 345.464 467.068 344.293C468.161 343.122 468.783 341.787 468.99 340.253C469.254 338.406 468.726 336.757 468.406 335.058C468.199 333.887 467.859 332.65 467.69 331.05C467.577 330.061 468.01 326.136 468.01 326.136L461.848 323.695Z" fill="#FFD1A4"/>
<path d="M463.073 303.938C463.714 306.659 465.315 310.073 464.957 312.86C464.731 314.526 464.467 315.944 461.113 317.824C460.435 318.22 459.662 318.517 458.889 318.731L458.437 318.846C458.004 308.589 459.53 291.718 459.53 291.718C457.024 284.065 457.683 266.832 457.683 266.832C457.683 266.832 466.088 275.407 466.088 276.133C466.088 276.545 466.559 280.751 466.974 284.247C464.279 290.613 461.452 296.995 463.073 303.938Z" fill="#266FC6"/>
<path d="M477.508 292.839L469.009 327.554C469.009 327.554 468.632 327.752 467.878 327.9C466.54 328.181 464.015 328.28 460.322 326.713C460.322 326.713 461.132 299.584 462.168 291.619C462.168 291.619 456.496 272.158 457.909 263.401C458.814 257.761 464.317 255.815 468.745 256.458C471.176 256.821 473.306 257.959 474.135 259.707C474.116 259.707 479.166 287.825 477.508 292.839Z" fill="#347EE8"/>
<path d="M418.882 279.645C418.863 279.629 418.844 279.629 418.825 279.612C418.825 279.612 424.441 269.717 425.892 265.792L424.592 243.496C424.592 243.496 419.56 244.304 415.094 252.5C410.609 260.713 401.036 280.948 402.167 284.329C402.167 284.329 408.875 279.596 418.825 279.645C418.844 279.645 418.863 279.645 418.882 279.645Z" fill="#347EE8"/>
<path d="M449.957 274.385V300.903C449.957 300.903 449.957 300.92 449.957 300.936C449.957 301.052 449.938 301.481 449.693 301.613L449.674 301.629C449.637 301.646 449.618 301.662 449.599 301.679L449.128 301.959L449.071 301.843L426.684 290.415V262.164L426.194 261.307L426.684 261.059L448.525 272.191C449.41 272.653 449.957 273.494 449.957 274.385Z" fill="#97A2CE"/>
<path d="M426.194 261.323L448.035 272.472C448.92 272.917 449.467 273.758 449.467 274.665V301.431C449.467 301.942 448.826 302.256 448.336 302.008L426.194 290.712V261.323V261.323Z" fill="#B4BBE1"/>
<path d="M419.315 264.786L426.194 261.323L426.778 261.62L426.514 268.464L419.315 264.786Z" fill="#97A2CE"/>
<path d="M426.778 261.62L419.956 265.116V269.866L426.778 265.562V261.62Z" fill="#8792B2"/>
<path d="M426.778 262.428L420.766 265.529L419.956 293.878L440.912 304.812L447.696 301.233C448.299 300.92 448.657 300.343 448.657 299.733V274.616C448.657 273.972 448.261 273.362 447.62 273.049L426.778 262.428Z" fill="white"/>
<path d="M442.589 278.112V304.631C442.589 304.631 442.589 304.647 442.589 304.663C442.589 304.779 442.57 305.208 442.325 305.34L442.306 305.356C442.268 305.373 442.249 305.389 442.231 305.406L441.759 305.686L441.703 305.571L419.315 294.142V265.891L418.825 265.034L419.315 264.786L441.156 275.918C442.042 276.38 442.589 277.221 442.589 278.112Z" fill="#97A2CE"/>
<path d="M418.825 265.034L440.666 276.182C441.552 276.644 442.099 277.468 442.099 278.376V305.142C442.099 305.653 441.458 305.966 440.968 305.719L418.825 294.422V265.034V265.034Z" fill="#B4BBE1"/>
<path d="M450.993 291.173C450.861 290.365 450.108 290.101 450.108 290.101L446.621 291.503C446.866 291.256 447.601 290.761 447.884 290.514C448.638 289.854 448.242 289.178 447.884 289.112C447.526 289.046 444.36 290.299 443.493 290.745C443.154 290.926 442.683 291.421 442.419 291.751C441.741 292.361 441.062 292.443 440.666 292.427L437.576 291.454L434.297 293.647L435.088 296.929C435.088 296.929 440.968 299.799 442.739 299.403C448.694 298.1 450.409 295.527 450.409 295.527C450.899 294.851 451.125 291.981 450.993 291.173Z" fill="#FFD1A4"/>
<path d="M436.012 297.754C436.012 297.754 435.748 297.325 435.654 296.764C435.371 294.851 436.446 291.586 439.461 291.701C439.461 291.701 428.229 284.313 418.863 279.629C418.298 279.431 412.909 279.497 408.8 280.734C404.824 281.938 402.148 284.313 402.148 284.313C403.317 287.71 436.012 297.754 436.012 297.754Z" fill="#347EE8"/>
<path d="M477.508 292.839L469.009 327.554C469.009 327.554 468.632 327.752 467.878 327.9C468.425 325.41 474.964 295.214 475.247 290.085C475.567 284.741 468.726 256.475 468.726 256.475C471.157 256.837 473.287 257.975 474.116 259.723C474.116 259.707 479.166 287.825 477.508 292.839Z" fill="#266FC6"/>
<path opacity="0.55" d="M396.947 288.601C396.947 288.601 396.947 288.601 396.947 288.584L396.739 282.73C396.739 282.73 396.739 282.713 396.739 282.68V282.433L396.72 282.466C396.136 271.631 378.686 263.352 357.542 263.896C336.266 264.424 319.306 273.742 319.683 284.659L319.871 290.58C320.022 294.736 322.623 298.496 326.957 301.563L318.816 305.999C317.78 305.571 316.687 305.356 315.594 305.455C315.028 305.505 314.501 305.637 313.954 305.851C313.86 305.884 313.785 305.933 313.69 305.983L313.37 306.148C313.313 306.164 313.276 306.197 313.238 306.23C313.181 306.263 313.181 306.28 313.125 306.313L272.741 328.032C278.526 329.715 284.462 331.727 290.492 334.101L320.569 317.956C320.908 317.808 321.209 317.643 321.473 317.428C322.265 316.917 322.849 316.175 323.245 315.334C323.64 314.443 323.735 313.437 323.659 312.382L334.438 306.511C334.627 306.428 334.796 306.329 334.985 306.23C335.136 306.115 335.286 305.966 335.4 305.835C342.014 308.275 350.212 309.628 359.087 309.413C379.779 308.869 396.362 300.079 396.984 289.541L397.003 289.557L396.947 288.601Z" fill="#B4BBE1"/>
<path d="M315.349 268.019C315.386 269.058 315.575 270.097 315.895 271.086C319.118 280.932 336.059 288.106 356.204 287.595C376.349 287.083 392.763 279.035 395.326 269.041C395.59 268.035 395.665 259.658 395.665 259.658C395.665 259.658 385.112 241.286 354.81 241.649C336.474 241.879 315.349 261.719 315.349 261.719C315.349 261.719 315.292 266.04 315.349 268.019ZM321.737 267.854C321.662 265.364 322.604 262.972 324.375 260.779C329.407 254.562 341.128 250.01 354.941 249.647C368.736 249.284 380.74 253.226 386.186 259.179C388.108 261.274 389.201 263.616 389.296 266.106C389.616 275.671 374.766 279.398 356.11 279.877C337.435 280.371 322.057 277.436 321.737 267.854Z" fill="#4588FF"/>
<path opacity="0.2" d="M320.192 261.719C320.512 271.482 336.53 279.002 355.978 278.508C375.407 278.013 390.897 269.685 390.558 259.905C390.238 250.142 374.22 242.622 354.772 243.116C335.343 243.628 319.852 251.956 320.192 261.719Z" fill="url(#paint21_linear_302_3)"/>
<path opacity="0.2" d="M335.135 246.547C370.187 247.223 380.721 262.313 383.642 270.855C388.108 267.755 390.69 263.962 390.558 259.905C390.219 250.142 374.314 242.968 354.866 243.463C347.724 243.66 340.6 244.584 335.135 246.547Z" fill="white"/>
<path opacity="0.6" d="M323.659 262.098C323.942 270.74 338.132 277.403 355.337 276.957C372.542 276.512 386.243 269.157 385.941 260.499C385.922 260.251 385.922 260.004 385.885 259.757C384.923 267.871 371.732 274.566 355.337 274.995C338.66 275.44 324.809 269.19 323.735 260.927C323.659 261.307 323.64 261.703 323.659 262.098Z" fill="white"/>
<path d="M318.891 255.634L328.012 247.338L354.301 241.649L380.928 245.97L390.577 253.77L393.083 258.635L389.277 259.806C389.277 259.806 384.792 243.974 354.395 244.766C324.017 245.541 320.587 261.587 320.587 261.587L316.705 260.614L318.891 255.634Z" fill="#4588FF"/>
<path d="M315.349 261.719C315.386 262.758 315.575 263.797 315.895 264.787C319.118 274.632 336.059 281.806 356.204 281.295C376.349 280.784 392.763 272.736 395.326 262.742C395.59 261.736 395.703 260.697 395.665 259.658C395.288 248.278 376.99 239.505 354.81 240.082C332.629 240.643 314.972 250.34 315.349 261.719ZM321.737 261.571C321.662 259.08 322.604 256.689 324.375 254.496C329.407 248.278 341.128 243.727 354.941 243.364C368.736 243.001 380.74 246.942 386.186 252.896C388.108 254.99 389.201 257.332 389.296 259.823C389.616 269.388 374.766 277.551 356.11 278.029C337.435 278.508 322.057 271.136 321.737 261.571Z" fill="#81C5E8"/>
<path d="M315.349 261.719C315.386 262.758 315.575 263.797 315.895 264.787C319.118 274.632 336.059 281.806 356.204 281.295C376.349 280.784 392.763 272.736 395.326 262.742C395.59 261.736 395.703 260.697 395.665 259.658C395.288 248.278 376.99 239.505 354.81 240.082C332.629 240.643 314.972 250.34 315.349 261.719ZM321.737 261.571C321.662 259.08 322.604 256.689 324.375 254.496C329.407 248.278 341.128 243.727 354.941 243.364C368.736 243.001 380.74 246.942 386.186 252.896C388.108 254.99 389.201 257.332 389.296 259.823C389.616 269.388 374.766 277.551 356.11 278.029C337.435 278.508 322.057 271.136 321.737 261.571Z" fill="#80B4FF"/>
<path d="M310.543 286.094L311.316 287.083H311.335L314.783 291.536L315.669 292.674L330.764 284.428C330.971 284.346 331.141 284.247 331.31 284.131C331.781 283.818 332.139 283.373 332.347 282.861C332.46 282.614 332.535 282.334 332.573 282.053C332.705 281.229 332.554 280.322 332.083 279.431C331.499 278.359 330.538 277.568 329.501 277.188C328.936 276.99 328.352 276.908 327.786 276.957C327.447 276.99 327.127 277.056 326.806 277.188C326.75 277.205 326.693 277.238 326.637 277.254L326.429 277.37C326.411 277.386 326.373 277.403 326.354 277.419L310.543 286.094Z" fill="#CDD5F7"/>
<path d="M310.543 286.094L311.316 287.083H311.335L329.501 277.221C328.936 277.023 328.352 276.941 327.786 276.99C327.447 277.023 327.127 277.089 326.806 277.221C326.75 277.238 326.693 277.271 326.637 277.287L326.429 277.403C326.411 277.419 326.373 277.436 326.354 277.452L310.543 286.094Z" fill="white"/>
<path d="M314.746 291.553L315.631 292.69L330.726 284.445C330.933 284.362 331.103 284.263 331.272 284.148C331.744 283.834 332.102 283.389 332.309 282.878C332.422 282.631 332.497 282.35 332.535 282.07L314.746 291.553Z" fill="#B4BBE1"/>
<path d="M262.489 309.166L264.675 312.547L270.31 321.238L316.234 296.401H316.253C316.611 296.253 316.913 296.088 317.195 295.874C318.025 295.313 318.646 294.554 319.023 293.664C319.777 291.932 319.683 289.739 318.571 287.677C318.156 286.902 317.629 286.226 317.026 285.649C317.026 285.649 317.026 285.649 317.026 285.632C315.367 284.032 313.163 283.175 311.09 283.373C310.505 283.422 309.921 283.554 309.394 283.785C309.299 283.818 309.205 283.868 309.111 283.917L308.753 284.115C308.696 284.131 308.659 284.164 308.621 284.181C308.583 284.197 308.564 284.23 308.527 284.247L262.489 309.166Z" fill="#4588FF"/>
<path d="M262.489 309.166L264.675 312.547L270.196 311.095L317.026 285.665C317.026 285.665 317.026 285.665 317.026 285.649C317.026 285.649 317.026 285.649 317.026 285.632C315.367 284.032 313.163 283.175 311.09 283.373C310.505 283.422 309.921 283.554 309.394 283.785C309.299 283.818 309.205 283.868 309.111 283.917L308.753 284.115C308.696 284.131 308.659 284.164 308.621 284.181C308.583 284.197 308.564 284.23 308.527 284.247L262.489 309.166Z" fill="#80B4FF"/>
<path d="M260.171 317.874C262.074 321.353 266.183 323.085 269.348 321.766H269.367C269.706 321.617 270.027 321.452 270.328 321.238C271.139 320.677 271.761 319.919 272.156 319.028C272.91 317.296 272.816 315.103 271.704 313.058C270.121 310.172 267.031 308.49 264.223 308.754C263.638 308.803 263.054 308.935 262.527 309.166C262.432 309.199 262.338 309.248 262.244 309.298L261.886 309.496C261.829 309.512 261.792 309.545 261.754 309.562C259.172 311.161 258.437 314.691 260.171 317.874Z" fill="#3081E2"/>
<path d="M212.041 411.629V413.361C212.041 413.707 211.985 414.037 211.872 414.367C211.872 414.367 211.872 414.367 211.872 414.383C211.853 414.466 211.815 414.515 211.778 414.598C211.74 414.647 211.721 414.713 211.664 414.812C211.627 414.862 211.57 414.928 211.533 415.027C211.419 415.142 211.325 415.291 211.193 415.439C211.137 415.521 211.08 415.587 211.024 415.67C210.967 415.719 210.892 415.785 210.835 415.818C210.741 415.901 210.647 415.983 210.553 416.082C210.063 416.478 209.365 416.94 208.423 417.335C205.408 418.655 202.223 419.628 200 420.782C199.283 421.162 197.305 422.316 197.305 422.316C197.305 422.316 195.703 423.454 194.44 424.13C193.14 424.806 190.351 425.977 187.6 425.73C184.886 425.466 183.586 423.949 183.454 423.025L183.491 421.574L193.573 418.292L212.041 411.629Z" fill="#3A3A3A"/>
<path d="M194.384 411.217C194.384 411.217 197.474 411.102 202.525 410.343C207.575 409.584 211.043 409.37 211.702 410.755C212.343 412.091 212.475 413.526 207.971 416.214C203.467 418.919 199.981 419.199 196.363 421.739C193.687 423.619 191.274 424.064 188.599 424.229C185.904 424.394 184.095 423.487 183.51 422.53C182.154 420.304 183.567 416.082 183.567 416.082L194.384 411.217Z" fill="#347EE8"/>
<path d="M230.283 422.25V423.85C230.302 424.592 229.831 425.252 229.096 425.614C227.362 426.422 223.838 427.775 218.637 428.336C213.587 428.88 211.872 429.061 211.872 429.061C211.872 429.061 209.667 429.21 208.084 429.375C206.482 429.556 203.863 429.49 202.713 428.616C202.431 428.385 202.242 428.22 202.073 428.072C202.073 428.072 202.073 428.055 202.054 428.039C202.054 428.039 202.035 428.006 202.016 427.989C201.922 427.907 201.865 427.824 201.809 427.725C201.639 427.429 201.601 427.049 201.564 426.901C201.564 426.851 201.564 426.818 201.564 426.818L201.583 426.159V425.862L205.295 425.631C205.314 425.631 205.314 425.631 205.314 425.631L207.142 425.515L208.857 425.416L210.44 425.317L230.283 422.25Z" fill="#3A3A3A"/>
<path d="M215.49 418.16C215.49 418.16 217.695 419.974 220.295 419.974C222.896 419.974 227.965 419.925 229.266 420.716C229.906 421.112 230.246 421.59 230.283 422.134C230.321 422.679 230.076 423.272 229.586 423.899C228.606 425.152 222.048 427.032 217.111 427.362C212.173 427.709 211.909 427.643 209.573 427.989C207.236 428.335 204.805 428.484 203.335 427.857C200.791 426.752 200.621 423.388 202.167 421.161C203.731 418.952 215.49 418.16 215.49 418.16Z" fill="#347EE8"/>
<path d="M188.542 257.299L188.146 258.124L188.768 260.829L198.643 265.182L199.227 265.116L200.81 264.951L203.297 264.671V261.67C203.297 260.136 204.259 258.635 205.86 258.025C205.917 257.992 205.973 257.975 205.973 257.975C206.52 257.794 207.085 257.481 207.651 256.986L207.801 256.854C209.705 255.089 211.401 251.115 210.911 242.44C210.816 240.923 210.421 238.301 209.629 236.965C208.197 234.557 205.144 232.957 198.85 234.458C188.354 236.998 183.774 241.17 183.247 244.766C182.7 248.361 188.542 257.299 188.542 257.299Z" fill="#FFD1A4"/>
<path d="M203.278 264.655V261.653C203.278 260.12 204.24 258.619 205.841 258.009C205.333 258.206 203.731 258.883 201.62 259.872C200.772 260.268 200.791 262.659 200.791 264.935L203.278 264.655Z" fill="#F2BA88"/>
<path d="M211.532 275.985L226.552 268.25L225.572 275.111L216.734 283.422L211.532 275.985Z" fill="#FFD1A4"/>
<path d="M220.107 280.536L238.952 289.013C239.555 289.293 240.309 289.013 240.497 288.436L249.656 262.775C249.976 261.835 249.505 260.829 248.544 260.4L231.037 252.533C230.114 252.121 229.002 252.55 228.681 253.457L219.466 279.25C219.316 279.745 219.579 280.289 220.107 280.536Z" fill="#0A2982"/>
<path d="M221.181 279.827L238.349 287.595C238.801 287.809 239.366 287.595 239.517 287.166L248.11 263.154C248.449 262.016 248.393 261.521 247.093 260.961L230.754 253.572C230.34 253.391 229.85 253.572 229.718 253.985L220.785 278.986C220.635 279.3 220.823 279.662 221.181 279.827Z" fill="#205CE1"/>
<g opacity="0.5">
<path opacity="0.5" d="M246.188 262.395L245.849 263.319L230.736 256.491L231.037 255.617C231.037 255.601 231.056 255.584 231.056 255.568L246.188 262.395Z" fill="#6CE3FF"/>
<path opacity="0.5" d="M245.076 265.413L244.756 266.321L229.642 259.526L229.963 258.619L245.076 265.413Z" fill="#6CE3FF"/>
<path opacity="0.5" d="M244.002 268.431L243.682 269.355L228.531 262.544L228.889 261.62L244.002 268.431Z" fill="#6CE3FF"/>
<path opacity="0.5" d="M242.928 271.449L242.589 272.373L227.457 265.545L227.796 264.638L242.928 271.449Z" fill="#6CE3FF"/>
<path opacity="0.5" d="M241.835 274.5L241.515 275.408L226.382 268.58L226.703 267.673L241.835 274.5Z" fill="#6CE3FF"/>
<path opacity="0.5" d="M240.761 277.502L240.441 278.409L225.289 271.614L225.61 270.691L240.761 277.502Z" fill="#6CE3FF"/>
<path opacity="0.5" d="M239.687 280.536L239.348 281.443L224.215 274.632L224.536 273.725L239.687 280.536Z" fill="#6CE3FF"/>
<path opacity="0.5" d="M238.594 283.554L238.273 284.478L223.141 277.65L223.461 276.727L238.594 283.554Z" fill="#6CE3FF"/>
</g>
<path d="M235.654 284.115L239.027 286.572L239.668 287.034C239.668 287.034 240.441 284.198 241.816 283.126C242.287 282.763 243.663 282.268 244.436 282.087C244.888 281.971 245.284 281.757 245.566 281.427C246.226 280.635 247.206 278.904 246.697 275.902C246.603 275.325 246.433 274.929 246.264 274.649C246.245 274.632 246.245 274.632 246.245 274.632C245.83 274.006 245.303 274.022 245.303 274.022C245.303 274.022 243.022 275.44 242.363 275.869C241.816 276.216 241.119 276.908 240.591 276.397C240.309 276.133 241.967 274.286 242.438 273.445C242.89 272.604 242.005 271.697 241.609 272.01C241.232 272.34 238.895 274.913 237.934 277.09C236.973 279.283 235.654 284.115 235.654 284.115Z" fill="#FFD1A4"/>
<path d="M238.255 284.478L239.027 286.589L239.668 287.051C239.668 287.051 240.441 284.214 241.816 283.142C242.287 282.779 243.663 282.285 244.436 282.103C244.888 281.988 245.284 281.773 245.566 281.444C246.226 280.652 247.206 278.92 246.697 275.919C246.603 275.342 246.433 274.946 246.264 274.665C246.245 274.649 246.245 274.649 246.245 274.649C246.245 274.649 246.226 275.16 245.284 275.902C244.341 276.628 242.966 277.288 242.306 277.65C241.665 278.013 240.648 279.349 240.007 280.668C239.348 282.004 238.255 284.478 238.255 284.478Z" fill="#F2BA88"/>
<path d="M178.422 339.428C180.759 350.61 182.436 364.479 182.436 364.479C182.436 364.479 178.535 392.252 182.926 416.445C183.115 417.583 183.567 420.007 185.244 420.947C186.205 421.459 188.712 421.821 190.671 420.914C190.747 420.865 190.841 420.848 190.916 420.799C197.474 417.665 196.777 413.592 197.719 410.92C197.701 400.151 196.419 373.682 199.02 367.86L201.356 344.393L200.508 327.62H177.047V327.67L176.934 327.62C176.934 327.637 174.936 332.139 178.422 339.428Z" fill="#3A3A3A"/>
<path d="M185.583 339.89C187.788 346.239 190.634 362.847 191.237 366.887C191.237 366.887 189.051 398.848 190.916 420.815C197.474 417.682 196.777 413.608 197.719 410.937C197.701 400.167 196.419 373.698 199.02 367.877L201.357 344.409L200.508 327.637H184.377C184.377 327.637 183.379 333.524 185.583 339.89Z" fill="#2D2D2D"/>
<path d="M187.091 333.178C187.826 336.064 189.277 340.088 192.16 343.914C192.612 344.508 193.008 345.118 193.404 345.728C193.479 346.009 194.629 349.769 196.042 354.815C197.474 359.862 199.189 366.178 200.414 371.571C199.736 378.316 197.832 401.965 201.469 422.448C201.733 423.899 202.92 425.103 204.56 425.499C205.314 425.68 206.181 425.796 207.142 425.746C207.839 425.697 208.555 425.581 209.309 425.301C213.153 423.883 215.923 418.506 215.923 418.506C215.923 418.506 216.018 384.5 218.034 375.578C218.43 373.863 218.618 372.148 218.75 370.417C219.127 364.958 219.805 354.98 220.013 350.808C220.408 342.694 220.484 335.899 220.163 332.865L200.942 333.079L187.091 333.178Z" fill="#3A3A3A"/>
<path d="M200.923 333.03C201.017 334.036 201.093 334.695 201.093 334.695C201.093 334.695 201.281 338.934 203.731 345.283C206.181 351.632 208.612 366.706 208.875 372.362C209.139 377.557 205.973 402.328 207.161 425.697C207.858 425.647 208.574 425.532 209.328 425.252C213.172 423.833 215.942 418.457 215.942 418.457C215.942 418.457 216.036 384.451 218.053 375.529C218.449 373.814 218.637 372.099 218.769 370.367C219.146 364.908 219.824 354.931 220.032 350.758C220.427 342.644 220.503 335.85 220.182 332.815L200.923 333.03Z" fill="#2D2D2D"/>
<path d="M174.653 285.731C177.744 293.961 179.496 307.5 177.631 313.141C175.746 318.797 174.653 326.796 174.653 326.796C176.406 331.034 192.801 340.22 201.959 340.913C203.071 340.995 204.202 340.962 205.314 340.797C213.361 339.758 220.917 333.491 220.917 333.491C220.917 333.491 219.184 310.304 218.091 295.478C217.356 285.616 215.697 279.481 214.661 276.463C214.152 274.946 213.794 274.236 213.794 274.236C212.833 273.115 209.931 271.235 206.256 269.108C206.237 269.108 206.199 269.091 206.181 269.075C203.712 267.64 200.904 266.106 198.077 264.655H198.059C194.29 262.709 190.502 260.878 187.468 259.559C187.11 259.41 186.771 259.262 186.45 259.13C184.302 258.206 182.644 257.613 181.795 257.464C177.48 256.755 171.714 258.751 169.961 265.578C168.208 272.439 171.582 277.485 174.653 285.731Z" fill="#347EE8"/>
<path opacity="0.75" d="M206.294 313.058C206.84 319.391 205.747 335.173 205.333 340.83C213.379 339.791 220.936 333.524 220.936 333.524C220.936 333.524 219.202 310.337 218.109 295.511C217.374 285.649 215.716 279.514 214.68 276.496C213.813 275.622 213.247 275.061 213.247 275.061H202.638C202.638 275.061 197.116 276.051 199.114 287.051C201.13 298.051 205.634 305.29 206.294 313.058Z" fill="#205CE2"/>
<path d="M186.394 262.626C188.014 264.556 193.8 267.359 196.457 267.854C199.133 268.332 201.262 268.102 202.525 268.085C204.296 268.069 205.672 268.926 206.181 269.108C206.218 269.124 206.237 269.141 206.256 269.141C206.275 269.157 206.294 269.157 206.294 269.157L204.711 267.046L202.864 266.024C202.864 266.024 200.169 265.166 199.566 264.919C199.378 264.836 198.793 264.77 198.058 264.688H198.04C196.438 264.523 194.158 264.374 193.8 264.341C193.291 264.292 189.145 261.785 188.956 261.686C188.862 261.637 188.033 260.449 187.449 259.592C187.091 259.443 186.752 259.295 186.431 259.163C185.885 259.79 185.112 261.093 186.394 262.626Z" fill="#165BD6"/>
<path d="M180.476 245.095C181.381 249.812 185.941 257.233 188.259 257.91C189.654 258.338 190.973 258.503 192.066 258.553C193.875 258.635 195.496 257.514 195.816 255.947C196.099 254.628 196.57 252.962 197.38 251.676C199.001 249.07 201.111 247.701 202.167 248.179C203.241 248.658 203.128 250.34 203.128 250.34L203.825 250.323C203.825 250.323 203.882 249.779 203.995 249.07C204.07 248.361 204.164 247.454 204.202 246.761C204.202 244.997 204.824 243.265 206.049 241.88C206.784 241.022 207.669 239.703 208.63 237.707C209.252 236.388 209.403 235.118 209.271 233.98V233.964C208.838 230.335 207.142 228.851 205.54 227.812C200.32 224.464 189.409 230.682 185.376 233.65C183.171 235.266 181.626 237.146 180.853 239.274V239.29C180.194 241.055 180.062 242.968 180.476 245.095Z" fill="#713E23"/>
<path d="M187.147 258.932L188.146 258.124C194.666 264.424 203.279 264.655 203.279 264.655C203.279 264.655 205.634 266.733 206.313 269.157L204.937 268.382C204.221 267.97 203.41 267.689 202.562 267.574C202.016 267.508 200.829 267.442 200.829 267.442C195.439 267.376 190.068 264.078 187.279 262.049C186.149 261.241 186.092 259.79 187.147 258.932Z" fill="white"/>
<path d="M211.533 415.455C211.438 415.62 211.306 415.752 211.193 415.884C211.325 415.719 211.438 415.587 211.533 415.455Z" fill="#474747"/>
<path d="M211.024 416.098C211.099 416.032 211.137 415.95 211.193 415.884C211.099 415.999 210.986 416.131 210.835 416.263C210.911 416.214 210.948 416.164 211.024 416.098Z" fill="#474747"/>
<path d="M240.233 285.5C240.233 285.5 240.233 285.5 240.233 285.517C240.082 285.896 238.556 290.217 237.633 292.922C236.747 295.527 233.826 304.977 231.47 309.479C231.451 309.562 231.414 309.628 231.357 309.71C231.225 309.925 231.112 310.106 231.037 310.271C231.018 310.353 230.98 310.403 230.924 310.485C230.924 310.502 230.905 310.502 230.905 310.518C230.792 310.683 230.717 310.865 230.641 311.013C229.755 312.448 228.135 313.635 226.062 313.866H225.817C222.576 313.866 214.83 301.679 212.531 297.952C213.474 297.44 214.623 296.797 215.867 296.006C218.109 294.571 220.597 292.658 222.462 290.233C223.612 292.476 225.968 295.808 227.004 297.952C227.004 297.952 227.136 297.671 227.324 297.176C228.059 295.577 230.189 291.718 231.923 289.607C234.448 286.556 236.031 282.466 236.238 282.021C236.238 282.152 236.351 282.532 237.519 282.664C237.915 282.713 238.311 283.01 238.707 283.406C239.102 283.802 239.461 284.296 239.781 284.742C239.837 284.791 239.875 284.857 239.913 284.907C240.045 285.121 240.158 285.286 240.233 285.5Z" fill="#FFD1A4"/>
<path d="M240.233 285.5C240.233 285.5 240.233 285.5 240.233 285.517C240.082 285.896 238.556 290.217 237.633 292.921C236.747 295.527 233.826 304.977 231.47 309.479C231.451 309.562 231.414 309.628 231.357 309.71C231.225 309.925 231.112 310.106 231.037 310.271C231.018 310.353 230.98 310.403 230.924 310.485C230.924 310.502 230.905 310.502 230.905 310.518C230.792 310.683 230.717 310.865 230.641 311.013C229.755 312.448 228.135 313.635 226.062 313.866H225.817C222.576 313.866 214.83 301.679 212.531 297.951C213.474 297.44 214.623 296.797 215.867 296.005C218.147 299.7 224.799 310.287 227.287 310.271C228.474 310.271 230.943 303.427 232.752 299.337C234.561 295.247 238.688 283.406 238.688 283.406C239.084 283.802 239.442 284.296 239.762 284.742C239.819 284.791 239.856 284.857 239.894 284.907C240.045 285.121 240.158 285.286 240.233 285.5Z" fill="#F2BA88"/>
<path d="M224.046 290.745C221.238 294.406 216.131 297.49 213.417 298.974C212.588 299.436 211.928 299.749 211.514 299.931C210.948 299.155 202.525 287.562 201.639 283.521C201.526 283.241 201.469 282.977 201.432 282.746C200.32 277.386 202.204 275.473 202.449 275.226C202.506 275.176 202.562 275.11 202.6 275.061C206.407 271.07 212.55 270.938 216.131 276.826C217.789 279.547 221.143 284.989 224.046 290.745Z" fill="#347EE8"/>
<path d="M180.476 245.095C181.381 249.812 185.941 257.233 188.259 257.91C189.654 258.338 190.973 258.503 192.066 258.553C193.875 258.635 195.496 257.514 195.816 255.947C196.099 254.628 196.57 252.962 197.38 251.676C199.001 249.07 201.111 247.701 202.167 248.179C203.241 248.658 203.128 250.34 203.128 250.34L203.825 250.323C203.825 250.323 203.882 249.779 203.995 249.07C204.07 248.361 204.164 247.454 204.202 246.761C204.202 244.996 204.824 243.265 206.049 241.88C206.784 241.022 207.669 239.703 208.63 237.707C209.252 236.388 209.403 235.118 209.271 233.98C208.762 235.118 204.409 243.99 192.254 246.217C179.572 248.542 180.759 239.736 180.853 239.29C180.194 241.055 180.062 242.968 180.476 245.095Z" fill="#442312"/>
<path d="M214.058 328.692C213.021 330.358 209.365 332.733 205.05 332.205C204.277 332.106 203.467 331.974 202.657 331.809C202.562 331.793 202.487 331.776 202.412 331.776C193.366 329.945 181.456 324.421 178.347 320.529C174.352 315.532 178.29 288.436 184.434 278.095V278.079C186.054 275.374 189.145 274.467 190.954 274.715C190.954 274.715 202.977 278.673 206.784 282.763C210.609 286.836 217.28 323.497 214.058 328.692Z" fill="#FBC006"/>
<path d="M214.058 328.692C213.021 330.358 209.365 332.733 205.05 332.205C204.277 332.106 203.467 331.974 202.657 331.809C205.483 332.469 207.651 329.616 207.651 327.637C207.651 325.674 204.805 295.478 201.564 287.05C200.603 284.56 188.316 279.646 184.453 278.079C186.073 275.374 189.164 274.467 190.973 274.715C190.973 274.715 202.996 278.673 206.803 282.763C210.609 286.836 217.28 323.497 214.058 328.692Z" fill="#FFD04D"/>
<path d="M195.816 276.793C195.816 276.793 198.341 272.571 201.338 270.889C204.334 269.19 207.274 269.602 207.274 269.602L211.74 272.389C211.74 272.389 209.177 272.307 206.331 274.137C204.635 275.226 201.846 279.481 201.846 279.481L195.816 276.793Z" fill="#FFD04D"/>
<path d="M219.221 309.018C219.221 309.018 218.449 313.751 213.266 316.901L214.114 322.887C214.114 322.887 216.941 321.419 219.768 316.159L219.221 309.018Z" fill="#FFD04D"/>
</g>
<defs>
<linearGradient id="paint0_linear_302_3" x1="142.516" y1="166.885" x2="205.501" y2="166.885" gradientUnits="userSpaceOnUse">
<stop stop-color="#B4BBE1" stop-opacity="0.1"/>
<stop offset="1" stop-color="#B4BBE1" stop-opacity="0.3"/>
</linearGradient>
<linearGradient id="paint1_linear_302_3" x1="95.3747" y1="207.839" x2="14.0188" y2="261.512" gradientUnits="userSpaceOnUse">
<stop stop-color="#B4BBE1" stop-opacity="0.1"/>
<stop offset="1" stop-color="#B4BBE1" stop-opacity="0.3"/>
</linearGradient>
<linearGradient id="paint2_linear_302_3" x1="149.814" y1="216.382" x2="68.459" y2="270.054" gradientUnits="userSpaceOnUse">
<stop stop-color="#B4BBE1" stop-opacity="0.1"/>
<stop offset="1" stop-color="#B4BBE1" stop-opacity="0.3"/>
</linearGradient>
<linearGradient id="paint3_linear_302_3" x1="67.9961" y1="310.363" x2="482.146" y2="310.363" gradientUnits="userSpaceOnUse">
<stop stop-color="#B4BBE1" stop-opacity="0.1"/>
<stop offset="1" stop-color="#B4BBE1" stop-opacity="0.3"/>
</linearGradient>
<linearGradient id="paint4_linear_302_3" x1="346.184" y1="262.527" x2="445.022" y2="262.527" gradientUnits="userSpaceOnUse">
<stop stop-color="#CED5EF"/>
<stop offset="0.3714" stop-color="#D5DDF1"/>
<stop offset="0.8656" stop-color="#DAE3F2"/>
</linearGradient>
<linearGradient id="paint5_linear_302_3" x1="330.124" y1="270.6" x2="428.926" y2="270.6" gradientUnits="userSpaceOnUse">
<stop stop-color="#CED5EF"/>
<stop offset="0.3714" stop-color="#D5DDF1"/>
<stop offset="0.8656" stop-color="#DAE3F2"/>
</linearGradient>
<linearGradient id="paint6_linear_302_3" x1="314.064" y1="278.665" x2="412.866" y2="278.665" gradientUnits="userSpaceOnUse">
<stop stop-color="#CED5EF"/>
<stop offset="0.3714" stop-color="#D5DDF1"/>
<stop offset="0.8656" stop-color="#DAE3F2"/>
</linearGradient>
<linearGradient id="paint7_linear_302_3" x1="298.181" y1="286.661" x2="396.966" y2="286.661" gradientUnits="userSpaceOnUse">
<stop stop-color="#CED5EF"/>
<stop offset="0.3714" stop-color="#D5DDF1"/>
<stop offset="0.8656" stop-color="#DAE3F2"/>
</linearGradient>
<linearGradient id="paint8_linear_302_3" x1="282.086" y1="294.75" x2="380.853" y2="294.75" gradientUnits="userSpaceOnUse">
<stop stop-color="#CED5EF"/>
<stop offset="0.3714" stop-color="#D5DDF1"/>
<stop offset="0.8656" stop-color="#DAE3F2"/>
</linearGradient>
<linearGradient id="paint9_linear_302_3" x1="265.07" y1="303.296" x2="363.837" y2="303.296" gradientUnits="userSpaceOnUse">
<stop stop-color="#CED5EF"/>
<stop offset="0.3714" stop-color="#D5DDF1"/>
<stop offset="0.8656" stop-color="#DAE3F2"/>
</linearGradient>
<linearGradient id="paint10_linear_302_3" x1="248.85" y1="311.462" x2="347.582" y2="311.462" gradientUnits="userSpaceOnUse">
<stop stop-color="#CED5EF"/>
<stop offset="0.3714" stop-color="#D5DDF1"/>
<stop offset="0.8656" stop-color="#DAE3F2"/>
</linearGradient>
<linearGradient id="paint11_linear_302_3" x1="232.631" y1="319.59" x2="331.398" y2="319.59" gradientUnits="userSpaceOnUse">
<stop stop-color="#CED5EF"/>
<stop offset="0.3714" stop-color="#D5DDF1"/>
<stop offset="0.8656" stop-color="#DAE3F2"/>
</linearGradient>
<linearGradient id="paint12_linear_302_3" x1="222.127" y1="217.964" x2="334.327" y2="217.964" gradientUnits="userSpaceOnUse">
<stop stop-color="#CED5EF"/>
<stop offset="0.3714" stop-color="#D5DDF1"/>
<stop offset="0.8656" stop-color="#DAE3F2"/>
</linearGradient>
<linearGradient id="paint13_linear_302_3" x1="206.211" y1="225.975" x2="318.357" y2="225.975" gradientUnits="userSpaceOnUse">
<stop stop-color="#CED5EF"/>
<stop offset="0.3714" stop-color="#D5DDF1"/>
<stop offset="0.8656" stop-color="#DAE3F2"/>
</linearGradient>
<linearGradient id="paint14_linear_302_3" x1="189.979" y1="234.116" x2="302.196" y2="234.116" gradientUnits="userSpaceOnUse">
<stop stop-color="#CED5EF"/>
<stop offset="0.3714" stop-color="#D5DDF1"/>
<stop offset="0.8656" stop-color="#DAE3F2"/>
</linearGradient>
<linearGradient id="paint15_linear_302_3" x1="173.963" y1="242.178" x2="286.127" y2="242.178" gradientUnits="userSpaceOnUse">
<stop stop-color="#CED5EF"/>
<stop offset="0.3714" stop-color="#D5DDF1"/>
<stop offset="0.8656" stop-color="#DAE3F2"/>
</linearGradient>
<linearGradient id="paint16_linear_302_3" x1="157.812" y1="250.288" x2="269.985" y2="250.288" gradientUnits="userSpaceOnUse">
<stop stop-color="#CED5EF"/>
<stop offset="0.3714" stop-color="#D5DDF1"/>
<stop offset="0.8656" stop-color="#DAE3F2"/>
</linearGradient>
<linearGradient id="paint17_linear_302_3" x1="141.797" y1="258.35" x2="253.951" y2="258.35" gradientUnits="userSpaceOnUse">
<stop stop-color="#CED5EF"/>
<stop offset="0.3714" stop-color="#D5DDF1"/>
<stop offset="0.8656" stop-color="#DAE3F2"/>
</linearGradient>
<linearGradient id="paint18_linear_302_3" x1="125.691" y1="266.436" x2="237.872" y2="266.436" gradientUnits="userSpaceOnUse">
<stop stop-color="#CED5EF"/>
<stop offset="0.3714" stop-color="#D5DDF1"/>
<stop offset="0.8656" stop-color="#DAE3F2"/>
</linearGradient>
<linearGradient id="paint19_linear_302_3" x1="109.558" y1="274.541" x2="221.713" y2="274.541" gradientUnits="userSpaceOnUse">
<stop stop-color="#CED5EF"/>
<stop offset="0.3714" stop-color="#D5DDF1"/>
<stop offset="0.8656" stop-color="#DAE3F2"/>
</linearGradient>
<linearGradient id="paint20_linear_302_3" x1="352.277" y1="386.496" x2="493.033" y2="386.496" gradientUnits="userSpaceOnUse">
<stop stop-color="#B4BBE1" stop-opacity="0.1"/>
<stop offset="1" stop-color="#B4BBE1" stop-opacity="0.3"/>
</linearGradient>
<linearGradient id="paint21_linear_302_3" x1="320.177" y1="260.821" x2="390.555" y2="260.821" gradientUnits="userSpaceOnUse">
<stop stop-color="#B4BBE1" stop-opacity="0.1"/>
<stop offset="1" stop-color="#B4BBE1" stop-opacity="0.3"/>
</linearGradient>
<clipPath id="clip0_302_3">
<rect width="544" height="432" fill="white"/>
</clipPath>
</defs>
</svg>
